<svg width="280" height="119" viewBox="0 0 280 119" fill="none" xmlns="http://www.w3.org/2000/svg">
<g clip-path="url(#clip0_6_11615)">
<rect y="0.0403748" width="280" height="118.398" rx="12" fill="#19839B"/>
<line x1="221.424" y1="0.0403442" x2="221.424" y2="118.438" stroke="#F6F6F6" stroke-width="1.66172" stroke-dasharray="1.66 3.74"/>
<g opacity="0.3">
<path d="M290.609 56.565L290.102 56.1769C296.855 47.3092 300.426 36.7157 300.426 25.5371C300.426 8.2197 291.714 -7.71227 277.12 -17.0816L277.466 -17.619C292.245 -8.13627 301.065 7.99876 301.065 25.5371C301.065 36.8531 297.447 47.5839 290.609 56.565Z" fill="#E2E2E2"/>
<path d="M249.823 76.7786C221.566 76.7786 198.575 53.7883 198.575 25.5311C198.575 -2.72604 221.566 -25.7163 249.823 -25.7163V-25.0774C221.918 -25.0774 199.22 -2.37373 199.22 25.5252C199.22 53.43 221.924 76.1277 249.823 76.1277C258.255 76.1277 266.603 74.0138 273.96 70.0129L274.264 70.5742C266.812 74.6408 258.356 76.7786 249.823 76.7786Z" fill="#E2E2E2"/>
<path d="M225.573 64.9789C211.767 56.4755 203.526 41.7259 203.526 25.5311H204.81C204.81 41.278 212.824 55.6156 226.248 63.8861L225.573 64.9789Z" fill="#E2E2E2"/>
<path d="M249.823 71.8342C244.748 71.8342 239.761 71.0161 234.996 69.4097L235.408 68.1975C240.042 69.7621 244.891 70.5563 249.829 70.5563C273.017 70.5563 292.275 53.1852 294.61 30.1471L295.888 30.2785C293.475 53.9615 273.674 71.8342 249.823 71.8342Z" fill="#E2E2E2"/>
<path d="M294.264 18.3414C292.586 7.89728 287.223 -1.67503 279.156 -8.60795C271.005 -15.6185 260.585 -19.4761 249.824 -19.4761C241.135 -19.4761 232.704 -16.9979 225.436 -12.3043C216.969 -6.83441 210.507 1.40626 207.241 10.901L206.029 10.483C209.385 0.719547 216.031 -7.75403 224.738 -13.3792C232.214 -18.2042 240.884 -20.754 249.818 -20.754C260.889 -20.754 271.602 -16.783 279.986 -9.57535C288.28 -2.44537 293.798 7.40166 295.524 18.1444L294.264 18.3414Z" fill="#E2E2E2"/>
<path d="M249.823 58.9716C231.383 58.9716 216.383 43.9712 216.383 25.5311C216.383 18.0668 218.79 11.0084 223.334 5.12054L224.349 5.90281C219.978 11.5698 217.667 18.3534 217.667 25.5311C217.667 43.2606 232.094 57.6877 249.823 57.6877C252.97 57.6877 256.082 57.2339 259.061 56.3381L259.432 57.5683C256.326 58.5058 253.09 58.9716 249.823 58.9716Z" fill="#E2E2E2"/>
<path d="M272.408 50.1934L271.542 49.2499C278.177 43.1709 281.98 34.5302 281.98 25.5371C281.98 19.2073 280.141 13.0805 276.666 7.81962L277.735 7.11499C281.353 12.5849 283.264 18.9565 283.264 25.543C283.258 34.8885 279.305 43.8756 272.408 50.1934Z" fill="#E2E2E2"/>
<path d="M269.828 0.355205C264.089 -4.213 257.168 -6.62549 249.823 -6.62549C243.38 -6.62549 237.164 -4.72654 231.843 -1.13169L231.126 -2.19462C236.656 -5.93279 243.123 -7.90338 249.823 -7.90338C257.467 -7.90338 264.662 -5.39535 270.628 -0.642027L269.828 0.355205Z" fill="#E2E2E2"/>
<path d="M249.823 53.227C245.321 53.227 240.848 52.1223 236.895 50.0322L237.194 49.465C241.057 51.5072 245.422 52.5881 249.817 52.5881C261.957 52.5881 272.682 44.425 275.901 32.7328L276.516 32.906C273.232 44.8729 262.25 53.227 249.823 53.227Z" fill="#E2E2E2"/>
<path d="M230.243 45.1236C225.012 39.8926 222.127 32.9358 222.127 25.5371C222.127 10.268 234.548 -2.15875 249.823 -2.15875C265.092 -2.15875 277.519 10.268 277.519 25.5371H276.88C276.88 10.6203 264.746 -1.51384 249.829 -1.51384C234.912 -1.51384 222.778 10.6203 222.778 25.5371C222.778 32.7626 225.591 39.5582 230.708 44.6698L230.243 45.1236Z" fill="#E2E2E2"/>
<path d="M249.823 42.7589C240.323 42.7589 232.595 35.0318 232.595 25.5311C232.595 16.0305 240.323 8.30334 249.823 8.30334V9.58723C241.033 9.58723 233.879 16.7411 233.879 25.5311C233.879 34.3212 241.033 41.4751 249.823 41.4751C258.613 41.4751 265.767 34.3212 265.767 25.5311H267.051C267.045 35.0318 259.318 42.7589 249.823 42.7589Z" fill="#E2E2E2"/>
<path d="M249.824 34.0943C245.1 34.0943 241.261 30.2546 241.261 25.5312H241.9C241.9 29.8963 245.453 33.4494 249.818 33.4494C254.183 33.4494 257.736 29.8963 257.736 25.5312C257.736 21.166 254.183 17.6129 249.818 17.6129C247.393 17.6129 245.136 18.6997 243.619 20.5987L243.118 20.1986C244.754 18.1444 247.196 16.968 249.818 16.968C254.541 16.968 258.381 20.8077 258.381 25.5312C258.381 30.2546 254.541 34.0943 249.824 34.0943Z" fill="#E2E2E2"/>
</g>
<g opacity="0.2">
<path d="M155.142 182.491L154.25 181.808C166.123 166.219 172.4 147.597 172.4 127.945C172.4 97.5022 157.084 69.4947 131.428 53.024L132.037 52.0792C158.019 68.7493 173.524 97.1138 173.524 127.945C173.524 147.838 167.162 166.702 155.142 182.491Z" fill="#F6F6F6"/>
<path d="M83.4435 218.025C33.7689 218.025 -6.64673 177.609 -6.64673 127.935C-6.64673 78.2602 33.7689 37.8445 83.4435 37.8445V38.9677C34.3883 38.9677 -5.51299 78.8795 -5.51299 127.924C-5.51299 176.979 34.3988 216.881 83.4435 216.881C98.2661 216.881 112.942 213.165 125.875 206.131L126.41 207.118C113.309 214.267 98.4445 218.025 83.4435 218.025Z" fill="#F6F6F6"/>
<path d="M161.567 115.296C158.617 96.9354 149.19 80.1078 135.008 67.9201C120.679 55.596 102.361 48.8145 83.4441 48.8145C68.1701 48.8145 53.3475 53.171 40.572 61.4221C25.6864 71.0379 14.328 85.5246 8.58584 102.216L6.45483 101.481C12.3545 84.3174 24.0383 69.4213 39.3437 59.5326C52.4867 51.0505 67.7292 46.5681 83.4336 46.5681C102.896 46.5681 121.729 53.5489 136.467 66.2195C151.048 78.7536 160.748 96.0641 163.782 114.949L161.567 115.296Z" fill="#F6F6F6"/>
<path d="M83.4437 186.721C51.0271 186.721 24.6572 160.351 24.6572 127.935C24.6572 114.813 28.8877 102.405 36.8764 92.054L38.661 93.4292C30.9768 103.391 26.9142 115.317 26.9142 127.935C26.9142 159.102 52.2763 184.464 83.4437 184.464C88.9759 184.464 94.4451 183.666 99.6834 182.092L100.334 184.254C94.8755 185.902 89.1858 186.721 83.4437 186.721Z" fill="#F6F6F6"/>
<path d="M123.146 171.29L121.624 169.631C133.286 158.945 139.973 143.755 139.973 127.945C139.973 116.818 136.74 106.047 130.63 96.7989L132.51 95.5602C138.871 105.176 142.23 116.377 142.23 127.956C142.22 144.384 135.27 160.183 123.146 171.29Z" fill="#F6F6F6"/>
<path d="M118.61 83.6769C108.522 75.6462 96.3554 71.4052 83.4434 71.4052C72.1165 71.4052 61.1885 74.7435 51.8352 81.063L50.5754 79.1944C60.2962 72.6229 71.6651 69.1588 83.4434 69.1588C96.8803 69.1588 109.53 73.5677 120.017 81.9238L118.61 83.6769Z" fill="#F6F6F6"/>
<path d="M49.0218 162.377C39.8259 153.181 34.7556 140.952 34.7556 127.945C34.7556 101.103 56.5906 79.2574 83.4434 79.2574C110.286 79.2574 132.131 101.103 132.131 127.945H131.008C131.008 101.722 109.677 80.3911 83.4539 80.3911C57.2309 80.3911 35.8998 101.722 35.8998 127.945C35.8998 140.647 40.8442 152.594 49.8406 161.579L49.0218 162.377Z" fill="#F6F6F6"/>
<path d="M83.4427 158.22C66.7411 158.22 53.1572 144.636 53.1572 127.935C53.1572 111.233 66.7411 97.6492 83.4427 97.6492V99.9062C67.9903 99.9062 55.4142 112.482 55.4142 127.935C55.4142 143.387 67.9903 155.963 83.4427 155.963C98.8952 155.963 111.471 143.387 111.471 127.935H113.728C113.718 144.636 100.134 158.22 83.4427 158.22Z" fill="#F6F6F6"/>
<path d="M83.4439 142.988C75.1403 142.988 68.3904 136.238 68.3904 127.935H69.5136C69.5136 135.608 75.7597 141.855 83.4334 141.855C91.1071 141.855 97.3532 135.608 97.3532 127.935C97.3532 120.261 91.1071 114.015 83.4334 114.015C79.1714 114.015 75.2033 115.925 72.5369 119.264L71.6551 118.56C74.5314 114.949 78.825 112.881 83.4334 112.881C91.737 112.881 98.4869 119.631 98.4869 127.935C98.4869 136.238 91.737 142.988 83.4439 142.988Z" fill="#F6F6F6"/>
</g>
<path d="M31.1393 9.63143C30.6715 9.63143 30.2904 9.25027 30.2904 8.78248C30.2904 8.31469 30.6715 7.93353 31.1393 7.93353C31.6071 7.93353 31.9883 8.31469 31.9883 8.78248C31.9883 9.25316 31.6071 9.63143 31.1393 9.63143ZM31.9883 13.8617C31.9883 13.3939 31.6071 13.0128 31.1393 13.0128C30.6715 13.0128 30.2904 13.3939 30.2904 13.8617C30.2904 14.3295 30.6715 14.7107 31.1393 14.7107C31.6071 14.7107 31.9883 14.3324 31.9883 13.8617ZM31.9883 18.941C31.9883 18.4732 31.6071 18.092 31.1393 18.092C30.6715 18.092 30.2904 18.4732 30.2904 18.941C30.2904 19.4088 30.6715 19.7899 31.1393 19.7899C31.6071 19.7928 31.9883 19.4117 31.9883 18.941ZM31.9883 24.0231C31.9883 23.5553 31.6071 23.1742 31.1393 23.1742C30.6715 23.1742 30.2904 23.5553 30.2904 24.0231C30.2904 24.4909 30.6715 24.8721 31.1393 24.8721C31.6071 24.8721 31.9883 24.4909 31.9883 24.0231ZM31.9883 29.1024C31.9883 28.6346 31.6071 28.2534 31.1393 28.2534C30.6715 28.2534 30.2904 28.6346 30.2904 29.1024C30.2904 29.5702 30.6715 29.9513 31.1393 29.9513C31.6071 29.9513 31.9883 29.5702 31.9883 29.1024ZM26.909 8.78248C26.909 8.31469 26.5278 7.93353 26.0601 7.93353C25.5923 7.93353 25.2111 8.31469 25.2111 8.78248C25.2111 9.25027 25.5923 9.63143 26.0601 9.63143C26.5278 9.63143 26.909 9.25316 26.909 8.78248ZM26.909 13.8617C26.909 13.3939 26.5278 13.0128 26.0601 13.0128C25.5923 13.0128 25.2111 13.3939 25.2111 13.8617C25.2111 14.3295 25.5923 14.7107 26.0601 14.7107C26.5278 14.7107 26.909 14.3324 26.909 13.8617ZM26.909 18.941C26.909 18.4732 26.5278 18.092 26.0601 18.092C25.5923 18.092 25.2111 18.4732 25.2111 18.941C25.2111 19.4088 25.5923 19.7899 26.0601 19.7899C26.5278 19.7928 26.909 19.4117 26.909 18.941ZM26.909 24.0231C26.909 23.5553 26.5278 23.1742 26.0601 23.1742C25.5923 23.1742 25.2111 23.5553 25.2111 24.0231C25.2111 24.4909 25.5923 24.8721 26.0601 24.8721C26.5278 24.8721 26.909 24.4909 26.909 24.0231ZM26.909 29.1024C26.909 28.6346 26.5278 28.2534 26.0601 28.2534C25.5923 28.2534 25.2111 28.6346 25.2111 29.1024C25.2111 29.5702 25.5923 29.9513 26.0601 29.9513C26.5278 29.9513 26.909 29.5702 26.909 29.1024ZM21.8269 8.78248C21.8269 8.31469 21.4457 7.93353 20.9779 7.93353C20.5101 7.93353 20.129 8.31469 20.129 8.78248C20.129 9.25027 20.5101 9.63143 20.9779 9.63143C21.4486 9.63143 21.8269 9.25316 21.8269 8.78248ZM21.8269 13.8617C21.8269 13.3939 21.4457 13.0128 20.9779 13.0128C20.5101 13.0128 20.129 13.3939 20.129 13.8617C20.129 14.3295 20.5101 14.7107 20.9779 14.7107C21.4486 14.7107 21.8269 14.3324 21.8269 13.8617ZM21.8269 18.941C21.8269 18.4732 21.4457 18.092 20.9779 18.092C20.5101 18.092 20.129 18.4732 20.129 18.941C20.129 19.4088 20.5101 19.7899 20.9779 19.7899C21.4486 19.7928 21.8269 19.4117 21.8269 18.941ZM21.8269 24.0231C21.8269 23.5553 21.4457 23.1742 20.9779 23.1742C20.5101 23.1742 20.129 23.5553 20.129 24.0231C20.129 24.4909 20.5101 24.8721 20.9779 24.8721C21.4486 24.8721 21.8269 24.4909 21.8269 24.0231ZM21.8269 29.1024C21.8269 28.6346 21.4457 28.2534 20.9779 28.2534C20.5101 28.2534 20.129 28.6346 20.129 29.1024C20.129 29.5702 20.5101 29.9513 20.9779 29.9513C21.4486 29.9513 21.8269 29.5702 21.8269 29.1024ZM16.7476 8.78248C16.7476 8.31469 16.3664 7.93353 15.8987 7.93353C15.4309 7.93353 15.0497 8.31469 15.0497 8.78248C15.0497 9.25027 15.4309 9.63143 15.8987 9.63143C16.3693 9.63143 16.7476 9.25316 16.7476 8.78248ZM16.7476 13.8617C16.7476 13.3939 16.3664 13.0128 15.8987 13.0128C15.4309 13.0128 15.0497 13.3939 15.0497 13.8617C15.0497 14.3295 15.4309 14.7107 15.8987 14.7107C16.3693 14.7107 16.7476 14.3324 16.7476 13.8617ZM16.7476 18.941C16.7476 18.4732 16.3664 18.092 15.8987 18.092C15.4309 18.092 15.0497 18.4732 15.0497 18.941C15.0497 19.4088 15.4309 19.7899 15.8987 19.7899C16.3693 19.7928 16.7476 19.4117 16.7476 18.941ZM16.7476 24.0231C16.7476 23.5553 16.3664 23.1742 15.8987 23.1742C15.4309 23.1742 15.0497 23.5553 15.0497 24.0231C15.0497 24.4909 15.4309 24.8721 15.8987 24.8721C16.3693 24.8721 16.7476 24.4909 16.7476 24.0231ZM16.7476 29.1024C16.7476 28.6346 16.3664 28.2534 15.8987 28.2534C15.4309 28.2534 15.0497 28.6346 15.0497 29.1024C15.0497 29.5702 15.4309 29.9513 15.8987 29.9513C16.3693 29.9513 16.7476 29.5702 16.7476 29.1024ZM11.6684 8.78248C11.6684 8.31469 11.2872 7.93353 10.8194 7.93353C10.3516 7.93353 9.97046 8.31469 9.97046 8.78248C9.97046 9.25027 10.3516 9.63143 10.8194 9.63143C11.2872 9.63143 11.6684 9.25316 11.6684 8.78248ZM11.6684 13.8617C11.6684 13.3939 11.2872 13.0128 10.8194 13.0128C10.3516 13.0128 9.97046 13.3939 9.97046 13.8617C9.97046 14.3295 10.3516 14.7107 10.8194 14.7107C11.2872 14.7107 11.6684 14.3324 11.6684 13.8617ZM11.6684 18.941C11.6684 18.4732 11.2872 18.092 10.8194 18.092C10.3516 18.092 9.97046 18.4732 9.97046 18.941C9.97046 19.4088 10.3516 19.7899 10.8194 19.7899C11.2872 19.7899 11.6684 19.4117 11.6684 18.941ZM11.6684 24.0231C11.6684 23.5553 11.2872 23.1742 10.8194 23.1742C10.3516 23.1742 9.97046 23.5553 9.97046 24.0231C9.97046 24.4909 10.3516 24.8721 10.8194 24.8721C11.2872 24.8721 11.6684 24.4909 11.6684 24.0231ZM11.6684 29.1024C11.6684 28.6346 11.2872 28.2534 10.8194 28.2534C10.3516 28.2534 9.97046 28.6346 9.97046 29.1024C9.97046 29.5702 10.3516 29.9513 10.8194 29.9513C11.2872 29.9513 11.6684 29.5702 11.6684 29.1024Z" fill="#FF6DC2"/>
<ellipse cx="221.217" cy="0.455791" rx="8.51632" ry="8.30861" fill="white"/>
<ellipse cx="221.217" cy="118.438" rx="8.51632" ry="8.30861" fill="white"/>
<g clip-path="url(#clip1_6_11615)">
<rect x="25.7122" y="10.9753" width="170" height="96.5277" rx="11.895" fill="white" fill-opacity="0.6"/>
<g filter="url(#filter0_f_6_11615)">
<circle cx="200.297" cy="5.89516" r="79.4242" fill="white"/>
</g>
<path d="M48.4574 25.2194H50.5061L52.4787 28.9451H52.5632L54.5359 25.2194H56.5846L53.4292 30.8121V33.8704H51.6128V30.8121L48.4574 25.2194ZM59.1222 33.9971C58.466 33.9971 57.8986 33.8577 57.4199 33.5789C56.944 33.2973 56.5765 32.9059 56.3174 32.4046C56.0583 31.9005 55.9288 31.3162 55.9288 30.6516C55.9288 29.9814 56.0583 29.3956 56.3174 28.8944C56.5765 28.3903 56.944 27.9989 57.4199 27.7201C57.8986 27.4385 58.466 27.2977 59.1222 27.2977C59.7783 27.2977 60.3443 27.4385 60.8203 27.7201C61.299 27.9989 61.6679 28.3903 61.927 28.8944C62.1861 29.3956 62.3156 29.9814 62.3156 30.6516C62.3156 31.3162 62.1861 31.9005 61.927 32.4046C61.6679 32.9059 61.299 33.2973 60.8203 33.5789C60.3443 33.8577 59.7783 33.9971 59.1222 33.9971ZM59.1306 32.6031C59.4291 32.6031 59.6783 32.5187 59.8783 32.3497C60.0782 32.1779 60.2289 31.9442 60.3303 31.6485C60.4345 31.3528 60.4866 31.0163 60.4866 30.6389C60.4866 30.2616 60.4345 29.9251 60.3303 29.6294C60.2289 29.3337 60.0782 29.1 59.8783 28.9282C59.6783 28.7564 59.4291 28.6705 59.1306 28.6705C58.8293 28.6705 58.5759 28.7564 58.3703 28.9282C58.1675 29.1 58.0141 29.3337 57.9099 29.6294C57.8085 29.9251 57.7578 30.2616 57.7578 30.6389C57.7578 31.0163 57.8085 31.3528 57.9099 31.6485C58.0141 31.9442 58.1675 32.1779 58.3703 32.3497C58.5759 32.5187 58.8293 32.6031 59.1306 32.6031ZM67.6464 31.1078V27.3822H69.4459V33.8704H67.7182V32.6918H67.6506C67.5042 33.072 67.2606 33.3776 66.9199 33.6085C66.5819 33.8394 66.1694 33.9548 65.6822 33.9548C65.2485 33.9548 64.8669 33.8563 64.5375 33.6592C64.208 33.462 63.9503 33.1818 63.7645 32.8186C63.5814 32.4553 63.4885 32.0202 63.4857 31.5133V27.3822H65.2851V31.1923C65.2879 31.5753 65.3907 31.878 65.5935 32.1005C65.7962 32.3229 66.068 32.4342 66.4087 32.4342C66.6256 32.4342 66.8283 32.3849 67.017 32.2863C67.2057 32.1849 67.3577 32.0357 67.4732 31.8386C67.5915 31.6414 67.6492 31.3979 67.6464 31.1078ZM70.8852 33.8704V27.3822H72.6298V28.5142H72.6974C72.8156 28.1115 73.0142 27.8074 73.293 27.6018C73.5717 27.3934 73.8928 27.2892 74.256 27.2892C74.3462 27.2892 74.4433 27.2949 74.5475 27.3061C74.6517 27.3174 74.7432 27.3329 74.8221 27.3526V28.9493C74.7376 28.9239 74.6207 28.9014 74.4715 28.8817C74.3222 28.862 74.1856 28.8521 74.0617 28.8521C73.797 28.8521 73.5605 28.9099 73.3521 29.0253C73.1465 29.138 72.9832 29.2957 72.8621 29.4984C72.7438 29.7012 72.6847 29.9349 72.6847 30.1996V33.8704H70.8852ZM80.4866 33.8704L78.0113 25.2194H80.0093L81.4412 31.2303H81.513L83.0928 25.2194H84.8036L86.3792 31.243H86.4552L87.8872 25.2194H89.8852L87.4099 33.8704H85.6273L83.9799 28.2143H83.9123L82.2691 33.8704H80.4866ZM90.4238 33.8704V27.3822H92.1683V28.5142H92.2359C92.3542 28.1115 92.5527 27.8074 92.8315 27.6018C93.1103 27.3934 93.4313 27.2892 93.7946 27.2892C93.8847 27.2892 93.9819 27.2949 94.086 27.3061C94.1902 27.3174 94.2818 27.3329 94.3606 27.3526V28.9493C94.2761 28.9239 94.1593 28.9014 94.01 28.8817C93.8608 28.862 93.7242 28.8521 93.6003 28.8521C93.3356 28.8521 93.099 28.9099 92.8906 29.0253C92.6851 29.138 92.5217 29.2957 92.4006 29.4984C92.2824 29.7012 92.2232 29.9349 92.2232 30.1996V33.8704H90.4238ZM95.291 33.8704V27.3822H97.0904V33.8704H95.291ZM96.1949 26.5458C95.9274 26.5458 95.6979 26.4571 95.5064 26.2797C95.3177 26.0994 95.2234 25.884 95.2234 25.6334C95.2234 25.3856 95.3177 25.173 95.5064 24.9955C95.6979 24.8153 95.9274 24.7252 96.1949 24.7252C96.4624 24.7252 96.6906 24.8153 96.8792 24.9955C97.0707 25.173 97.1665 25.3856 97.1665 25.6334C97.1665 25.884 97.0707 26.0994 96.8792 26.2797C96.6906 26.4571 96.4624 26.5458 96.1949 26.5458ZM103.93 29.2323L102.283 29.3337C102.255 29.1929 102.194 29.0662 102.101 28.9535C102.008 28.8381 101.886 28.7465 101.734 28.679C101.585 28.6086 101.406 28.5733 101.197 28.5733C100.919 28.5733 100.683 28.6325 100.492 28.7508C100.3 28.8662 100.205 29.0211 100.205 29.2154C100.205 29.3703 100.267 29.5012 100.391 29.6083C100.514 29.7153 100.727 29.8012 101.028 29.8659L102.203 30.1025C102.833 30.232 103.304 30.4404 103.613 30.7276C103.923 31.0149 104.078 31.3922 104.078 31.8597C104.078 32.2849 103.953 32.658 103.702 32.9791C103.454 33.3001 103.114 33.5507 102.68 33.731C102.249 33.9084 101.752 33.9971 101.189 33.9971C100.33 33.9971 99.6457 33.8183 99.1359 33.4606C98.6291 33.1002 98.332 32.6102 98.2447 31.9906L100.015 31.8977C100.068 32.1596 100.198 32.3595 100.403 32.4975C100.609 32.6327 100.872 32.7003 101.193 32.7003C101.508 32.7003 101.762 32.6397 101.953 32.5187C102.148 32.3947 102.246 32.2356 102.249 32.0413C102.246 31.878 102.177 31.7442 102.042 31.64C101.907 31.533 101.699 31.4514 101.417 31.395L100.293 31.1712C99.6597 31.0444 99.188 30.8248 98.8783 30.5122C98.5713 30.1996 98.4179 29.8012 98.4179 29.3168C98.4179 28.9 98.5305 28.541 98.7558 28.2396C98.9839 27.9383 99.3035 27.706 99.7147 27.5427C100.129 27.3793 100.613 27.2977 101.168 27.2977C101.987 27.2977 102.632 27.4709 103.102 27.8172C103.575 28.1636 103.851 28.6353 103.93 29.2323ZM108.662 27.3822V28.7339H104.755V27.3822H108.662ZM105.642 25.8277H107.442V31.8766C107.442 32.0427 107.467 32.1723 107.518 32.2652C107.568 32.3553 107.639 32.4187 107.729 32.4553C107.822 32.4919 107.929 32.5102 108.05 32.5102C108.134 32.5102 108.219 32.5032 108.303 32.4891C108.388 32.4722 108.453 32.4595 108.498 32.4511L108.781 33.7901C108.69 33.8183 108.564 33.8506 108.4 33.8873C108.237 33.9267 108.039 33.9506 107.805 33.9591C107.371 33.976 106.991 33.9182 106.664 33.7859C106.34 33.6535 106.088 33.448 105.908 33.1692C105.728 32.8904 105.639 32.5384 105.642 32.1131V25.8277ZM110.008 33.8704V25.2194H111.807V28.472H111.862C111.941 28.2974 112.055 28.12 112.204 27.9397C112.356 27.7567 112.553 27.6046 112.796 27.4835C113.041 27.3596 113.345 27.2977 113.708 27.2977C114.181 27.2977 114.618 27.4216 115.017 27.6694C115.417 27.9144 115.737 28.2847 115.976 28.7803C116.216 29.2731 116.335 29.8913 116.335 30.6347C116.335 31.3584 116.219 31.9695 115.985 32.468C115.754 32.9636 115.438 33.3395 115.039 33.5958C114.642 33.8492 114.197 33.976 113.704 33.976C113.355 33.976 113.058 33.9182 112.813 33.8028C112.57 33.6873 112.372 33.5423 112.217 33.3677C112.062 33.1903 111.944 33.0115 111.862 32.8312H111.782V33.8704H110.008ZM111.769 30.6263C111.769 31.0121 111.823 31.3486 111.93 31.6358C112.037 31.9231 112.192 32.1469 112.394 32.3074C112.597 32.4651 112.843 32.544 113.134 32.544C113.426 32.544 113.674 32.4637 113.877 32.3032C114.08 32.1399 114.233 31.9146 114.337 31.6274C114.444 31.3373 114.498 31.0036 114.498 30.6263C114.498 30.2517 114.446 29.9222 114.342 29.6378C114.237 29.3534 114.084 29.1309 113.881 28.9704C113.678 28.8099 113.429 28.7296 113.134 28.7296C112.841 28.7296 112.593 28.8071 112.39 28.962C112.19 29.1168 112.037 29.3365 111.93 29.6209C111.823 29.9053 111.769 30.2405 111.769 30.6263ZM119.386 33.9929C118.972 33.9929 118.603 33.9211 118.28 33.7774C117.956 33.631 117.699 33.4156 117.511 33.1311C117.325 32.8439 117.232 32.4863 117.232 32.0582C117.232 31.6978 117.298 31.395 117.43 31.15C117.563 30.905 117.743 30.7079 117.971 30.5587C118.199 30.4094 118.458 30.2968 118.748 30.2207C119.041 30.1447 119.348 30.0912 119.669 30.0602C120.047 30.0208 120.351 29.9842 120.582 29.9504C120.813 29.9138 120.98 29.8603 121.084 29.7899C121.189 29.7195 121.241 29.6153 121.241 29.4773V29.452C121.241 29.1844 121.156 28.9775 120.987 28.831C120.821 28.6846 120.584 28.6114 120.278 28.6114C119.954 28.6114 119.696 28.6832 119.505 28.8268C119.313 28.9676 119.186 29.145 119.124 29.359L117.46 29.2239C117.545 28.8296 117.711 28.4889 117.959 28.2016C118.206 27.9116 118.526 27.6891 118.917 27.5342C119.312 27.3765 119.768 27.2977 120.286 27.2977C120.646 27.2977 120.991 27.3399 121.321 27.4244C121.653 27.5089 121.947 27.6398 122.204 27.8172C122.463 27.9946 122.667 28.2227 122.816 28.5015C122.965 28.7775 123.04 29.1084 123.04 29.4942V33.8704H121.334V32.9706H121.283C121.179 33.1734 121.039 33.3522 120.865 33.5071C120.69 33.6592 120.48 33.7788 120.235 33.8661C119.99 33.9506 119.707 33.9929 119.386 33.9929ZM119.902 32.751C120.166 32.751 120.4 32.6989 120.603 32.5947C120.806 32.4877 120.965 32.3441 121.08 32.1638C121.196 31.9836 121.253 31.7794 121.253 31.5513V30.8628C121.197 30.8994 121.12 30.9332 121.021 30.9642C120.925 30.9923 120.817 31.0191 120.696 31.0444C120.575 31.067 120.454 31.0881 120.332 31.1078C120.211 31.1247 120.102 31.1402 120.003 31.1543C119.792 31.1852 119.607 31.2345 119.45 31.3021C119.292 31.3697 119.169 31.4612 119.082 31.5767C118.995 31.6893 118.951 31.8301 118.951 31.9991C118.951 32.2441 119.04 32.4314 119.217 32.5609C119.398 32.6876 119.626 32.751 119.902 32.751ZM126.236 30.1194V33.8704H124.436V27.3822H126.151V28.5269H126.227C126.371 28.1495 126.612 27.851 126.949 27.6314C127.287 27.4089 127.697 27.2977 128.179 27.2977C128.629 27.2977 129.022 27.3962 129.357 27.5934C129.692 27.7905 129.953 28.0721 130.139 28.4382C130.325 28.8015 130.417 29.2351 130.417 29.7392V33.8704H128.618V30.0602C128.621 29.6632 128.519 29.3534 128.314 29.1309C128.108 28.9056 127.825 28.793 127.465 28.793C127.223 28.793 127.009 28.8451 126.823 28.9493C126.64 29.0535 126.496 29.2056 126.392 29.4055C126.291 29.6026 126.238 29.8406 126.236 30.1194ZM134.227 33.976C133.734 33.976 133.287 33.8492 132.888 33.5958C132.49 33.3395 132.175 32.9636 131.941 32.468C131.71 31.9695 131.595 31.3584 131.595 30.6347C131.595 29.8913 131.715 29.2731 131.954 28.7803C132.193 28.2847 132.512 27.9144 132.909 27.6694C133.309 27.4216 133.746 27.2977 134.222 27.2977C134.586 27.2977 134.888 27.3596 135.13 27.4835C135.375 27.6046 135.573 27.7567 135.722 27.9397C135.874 28.12 135.989 28.2974 136.068 28.472H136.123V25.2194H137.918V33.8704H136.144V32.8312H136.068C135.984 33.0115 135.864 33.1903 135.709 33.3677C135.557 33.5423 135.359 33.6873 135.114 33.8028C134.871 33.9182 134.576 33.976 134.227 33.976ZM134.797 32.544C135.087 32.544 135.332 32.4651 135.532 32.3074C135.735 32.1469 135.889 31.9231 135.996 31.6358C136.106 31.3486 136.161 31.0121 136.161 30.6263C136.161 30.2405 136.108 29.9053 136.001 29.6209C135.894 29.3365 135.739 29.1168 135.536 28.962C135.333 28.8071 135.087 28.7296 134.797 28.7296C134.501 28.7296 134.252 28.8099 134.049 28.9704C133.846 29.1309 133.693 29.3534 133.589 29.6378C133.485 29.9222 133.432 30.2517 133.432 30.6263C133.432 31.0036 133.485 31.3373 133.589 31.6274C133.696 31.9146 133.849 32.1399 134.049 32.3032C134.252 32.4637 134.501 32.544 134.797 32.544ZM149.818 28.2481H147.968C147.934 28.0087 147.865 27.7961 147.761 27.6103C147.656 27.4216 147.523 27.2611 147.359 27.1287C147.196 26.9964 147.007 26.895 146.793 26.8246C146.582 26.7542 146.352 26.719 146.105 26.719C145.657 26.719 145.267 26.8302 144.935 27.0527C144.602 27.2723 144.345 27.5934 144.162 28.0158C143.979 28.4354 143.887 28.9451 143.887 29.5449C143.887 30.1616 143.979 30.6798 144.162 31.0994C144.347 31.5189 144.607 31.8358 144.939 32.0498C145.271 32.2638 145.656 32.3708 146.092 32.3708C146.337 32.3708 146.564 32.3384 146.772 32.2737C146.983 32.2089 147.171 32.1145 147.334 31.9906C147.497 31.8639 147.632 31.7104 147.739 31.5302C147.849 31.35 147.925 31.1444 147.968 30.9135L149.818 30.9219C149.77 31.319 149.65 31.702 149.459 32.0709C149.27 32.437 149.015 32.7651 148.694 33.0551C148.376 33.3423 147.996 33.5705 147.554 33.7394C147.114 33.9056 146.617 33.9886 146.062 33.9886C145.291 33.9886 144.601 33.814 143.993 33.4648C143.387 33.1157 142.908 32.6102 142.556 31.9484C142.207 31.2866 142.033 30.4855 142.033 29.5449C142.033 28.6015 142.21 27.7989 142.565 27.1372C142.92 26.4754 143.401 25.9713 144.01 25.6249C144.618 25.2757 145.302 25.1011 146.062 25.1011C146.564 25.1011 147.028 25.1715 147.456 25.3123C147.887 25.4532 148.269 25.6587 148.601 25.9291C148.933 26.1966 149.204 26.5247 149.412 26.9133C149.623 27.3019 149.759 27.7468 149.818 28.2481ZM154.027 33.9971C153.371 33.9971 152.803 33.8577 152.325 33.5789C151.849 33.2973 151.481 32.9059 151.222 32.4046C150.963 31.9005 150.834 31.3162 150.834 30.6516C150.834 29.9814 150.963 29.3956 151.222 28.8944C151.481 28.3903 151.849 27.9989 152.325 27.7201C152.803 27.4385 153.371 27.2977 154.027 27.2977C154.683 27.2977 155.249 27.4385 155.725 27.7201C156.204 27.9989 156.573 28.3903 156.832 28.8944C157.091 29.3956 157.22 29.9814 157.22 30.6516C157.22 31.3162 157.091 31.9005 156.832 32.4046C156.573 32.9059 156.204 33.2973 155.725 33.5789C155.249 33.8577 154.683 33.9971 154.027 33.9971ZM154.035 32.6031C154.334 32.6031 154.583 32.5187 154.783 32.3497C154.983 32.1779 155.134 31.9442 155.235 31.6485C155.339 31.3528 155.391 31.0163 155.391 30.6389C155.391 30.2616 155.339 29.9251 155.235 29.6294C155.134 29.3337 154.983 29.1 154.783 28.9282C154.583 28.7564 154.334 28.6705 154.035 28.6705C153.734 28.6705 153.481 28.7564 153.275 28.9282C153.072 29.1 152.919 29.3337 152.815 29.6294C152.713 29.9251 152.663 30.2616 152.663 30.6389C152.663 31.0163 152.713 31.3528 152.815 31.6485C152.919 31.9442 153.072 32.1779 153.275 32.3497C153.481 32.5187 153.734 32.6031 154.035 32.6031ZM160.781 33.976C160.288 33.976 159.842 33.8492 159.442 33.5958C159.045 33.3395 158.73 32.9636 158.496 32.468C158.265 31.9695 158.15 31.3584 158.15 30.6347C158.15 29.8913 158.269 29.2731 158.509 28.7803C158.748 28.2847 159.066 27.9144 159.463 27.6694C159.863 27.4216 160.301 27.2977 160.777 27.2977C161.14 27.2977 161.443 27.3596 161.685 27.4835C161.93 27.6046 162.127 27.7567 162.277 27.9397C162.429 28.12 162.544 28.2974 162.623 28.472H162.678V25.2194H164.473V33.8704H162.699V32.8312H162.623C162.539 33.0115 162.419 33.1903 162.264 33.3677C162.112 33.5423 161.913 33.6873 161.668 33.8028C161.426 33.9182 161.13 33.976 160.781 33.976ZM161.352 32.544C161.642 32.544 161.887 32.4651 162.087 32.3074C162.289 32.1469 162.444 31.9231 162.551 31.6358C162.661 31.3486 162.716 31.0121 162.716 30.6263C162.716 30.2405 162.662 29.9053 162.555 29.6209C162.448 29.3365 162.294 29.1168 162.091 28.962C161.888 28.8071 161.642 28.7296 161.352 28.7296C161.056 28.7296 160.807 28.8099 160.604 28.9704C160.401 29.1309 160.248 29.3534 160.143 29.6378C160.039 29.9222 159.987 30.2517 159.987 30.6263C159.987 31.0036 160.039 31.3373 160.143 31.6274C160.25 31.9146 160.404 32.1399 160.604 32.3032C160.807 32.4637 161.056 32.544 161.352 32.544ZM168.91 33.9971C168.242 33.9971 167.668 33.8619 167.186 33.5916C166.707 33.3184 166.338 32.9326 166.079 32.4342C165.82 31.9329 165.691 31.3401 165.691 30.6558C165.691 29.9884 165.82 29.4027 166.079 28.8986C166.338 28.3945 166.703 28.0017 167.173 27.7201C167.647 27.4385 168.201 27.2977 168.838 27.2977C169.266 27.2977 169.664 27.3667 170.033 27.5047C170.405 27.6398 170.729 27.844 171.005 28.1171C171.283 28.3903 171.5 28.7339 171.655 29.1478C171.81 29.559 171.887 30.0405 171.887 30.5925V31.0867H166.409V29.9715H170.194C170.194 29.7124 170.137 29.4829 170.025 29.283C169.912 29.0831 169.756 28.9268 169.556 28.8141C169.359 28.6987 169.129 28.6409 168.867 28.6409C168.594 28.6409 168.352 28.7043 168.141 28.831C167.932 28.9549 167.769 29.1225 167.651 29.3337C167.532 29.5421 167.472 29.7744 167.469 30.0307V31.0909C167.469 31.4119 167.528 31.6893 167.647 31.9231C167.768 32.1568 167.938 32.337 168.158 32.4637C168.377 32.5905 168.638 32.6538 168.939 32.6538C169.139 32.6538 169.322 32.6257 169.488 32.5693C169.654 32.513 169.797 32.4285 169.915 32.3159C170.033 32.2033 170.123 32.0653 170.185 31.9019L171.849 32.0118C171.765 32.4116 171.592 32.7608 171.33 33.0593C171.071 33.355 170.736 33.5859 170.325 33.7521C169.916 33.9154 169.445 33.9971 168.91 33.9971Z" fill="black"/>
<path d="M63.4108 50.8179V45.0506H65.3595C65.8119 45.0506 66.1818 45.1322 66.469 45.2956C66.7581 45.457 66.9722 45.6757 67.1111 45.9517C67.25 46.2277 67.3195 46.5356 67.3195 46.8754C67.3195 47.2152 67.25 47.524 67.1111 47.8019C66.974 48.0797 66.7619 48.3013 66.4747 48.4665C66.1874 48.6298 65.8195 48.7115 65.3708 48.7115H63.974V48.0919H65.3482C65.658 48.0919 65.9068 48.0384 66.0945 47.9314C66.2822 47.8244 66.4183 47.6798 66.5028 47.4977C66.5892 47.3138 66.6324 47.1063 66.6324 46.8754C66.6324 46.6445 66.5892 46.438 66.5028 46.2559C66.4183 46.0737 66.2813 45.9311 66.0917 45.8278C65.9021 45.7227 65.6505 45.6701 65.337 45.6701H64.1092V50.8179H63.4108ZM68.3544 50.8179V46.4924H68.9964V47.1457H69.0415C69.1204 46.9317 69.263 46.758 69.4695 46.6248C69.6761 46.4915 69.9088 46.4248 70.1679 46.4248C70.2167 46.4248 70.2778 46.4258 70.351 46.4276C70.4242 46.4295 70.4796 46.4323 70.5171 46.4361V47.1119C70.4946 47.1063 70.443 47.0979 70.3622 47.0866C70.2834 47.0734 70.1998 47.0669 70.1116 47.0669C69.9013 47.0669 69.7136 47.111 69.5484 47.1992C69.3851 47.2856 69.2555 47.4057 69.1598 47.5597C69.0659 47.7118 69.019 47.8854 69.019 48.0807V50.8179H68.3544ZM72.9868 50.908C72.57 50.908 72.2105 50.816 71.9083 50.632C71.6079 50.4462 71.376 50.1871 71.2127 49.8548C71.0512 49.5206 70.9705 49.132 70.9705 48.6889C70.9705 48.2459 71.0512 47.8554 71.2127 47.5174C71.376 47.1776 71.6032 46.9129 71.8942 46.7233C72.187 46.5318 72.5287 46.4361 72.9192 46.4361C73.1445 46.4361 73.367 46.4736 73.5866 46.5487C73.8063 46.6238 74.0062 46.7458 74.1864 46.9148C74.3667 47.0819 74.5103 47.3034 74.6173 47.5794C74.7243 47.8554 74.7778 48.1952 74.7778 48.5988V48.8804H71.4436V48.3059H74.102C74.102 48.0619 74.0532 47.8441 73.9555 47.6526C73.8598 47.4611 73.7227 47.31 73.5444 47.1992C73.3679 47.0885 73.1595 47.0331 72.9192 47.0331C72.6545 47.0331 72.4255 47.0988 72.2321 47.2302C72.0406 47.3597 71.8932 47.5287 71.79 47.7371C71.6867 47.9455 71.6351 48.1689 71.6351 48.4073V48.7903C71.6351 49.117 71.6914 49.3939 71.8041 49.621C71.9186 49.8463 72.0772 50.0181 72.28 50.1364C72.4827 50.2528 72.7183 50.311 72.9868 50.311C73.1614 50.311 73.3191 50.2866 73.4599 50.2378C73.6026 50.1871 73.7255 50.112 73.8288 50.0125C73.9321 49.9111 74.0118 49.7853 74.0682 49.6351L74.7102 49.8154C74.6426 50.0331 74.5291 50.2246 74.3695 50.3898C74.2099 50.5532 74.0128 50.6808 73.7781 50.7728C73.5434 50.8629 73.2797 50.908 72.9868 50.908ZM78.8527 47.4611L78.2557 47.6301C78.2181 47.5306 78.1627 47.4339 78.0895 47.34C78.0182 47.2443 77.9205 47.1654 77.7966 47.1035C77.6727 47.0415 77.5141 47.0106 77.3207 47.0106C77.056 47.0106 76.8354 47.0716 76.6589 47.1936C76.4844 47.3138 76.3971 47.4668 76.3971 47.6526C76.3971 47.8178 76.4571 47.9483 76.5773 48.0441C76.6974 48.1398 76.8852 48.2196 77.1405 48.2834L77.7826 48.4411C78.1693 48.535 78.4575 48.6786 78.6471 48.872C78.8367 49.0635 78.9315 49.3103 78.9315 49.6126C78.9315 49.8604 78.8602 50.0819 78.7175 50.2772C78.5767 50.4724 78.3796 50.6264 78.1261 50.739C77.8727 50.8517 77.5779 50.908 77.2419 50.908C76.8007 50.908 76.4355 50.8122 76.1464 50.6207C75.8573 50.4293 75.6743 50.1495 75.5973 49.7816L76.2281 49.6239C76.2882 49.8567 76.4017 50.0313 76.5688 50.1476C76.7378 50.264 76.9584 50.3222 77.2306 50.3222C77.5404 50.3222 77.7863 50.2565 77.9684 50.1251C78.1524 49.9918 78.2444 49.8322 78.2444 49.6464C78.2444 49.4962 78.1918 49.3704 78.0867 49.269C77.9816 49.1658 77.8201 49.0888 77.6023 49.0381L76.8814 48.8692C76.4853 48.7753 76.1943 48.6298 76.0084 48.4327C75.8245 48.2337 75.7325 47.9849 75.7325 47.6864C75.7325 47.4424 75.801 47.2265 75.938 47.0387C76.077 46.851 76.2656 46.7036 76.5041 46.5966C76.7444 46.4896 77.0166 46.4361 77.3207 46.4361C77.7488 46.4361 78.0848 46.5299 78.3289 46.7177C78.5748 46.9054 78.7494 47.1532 78.8527 47.4611ZM81.7455 50.908C81.3287 50.908 80.9692 50.816 80.6669 50.632C80.3665 50.4462 80.1347 50.1871 79.9713 49.8548C79.8099 49.5206 79.7292 49.132 79.7292 48.6889C79.7292 48.2459 79.8099 47.8554 79.9713 47.5174C80.1347 47.1776 80.3618 46.9129 80.6528 46.7233C80.9457 46.5318 81.2874 46.4361 81.6779 46.4361C81.9032 46.4361 82.1256 46.4736 82.3453 46.5487C82.5649 46.6238 82.7649 46.7458 82.9451 46.9148C83.1253 47.0819 83.2689 47.3034 83.376 47.5794C83.483 47.8554 83.5365 48.1952 83.5365 48.5988V48.8804H80.2023V48.3059H82.8606C82.8606 48.0619 82.8118 47.8441 82.7142 47.6526C82.6184 47.4611 82.4814 47.31 82.303 47.1992C82.1266 47.0885 81.9182 47.0331 81.6779 47.0331C81.4132 47.0331 81.1841 47.0988 80.9908 47.2302C80.7993 47.3597 80.6519 47.5287 80.5486 47.7371C80.4454 47.9455 80.3937 48.1689 80.3937 48.4073V48.7903C80.3937 49.117 80.4501 49.3939 80.5627 49.621C80.6772 49.8463 80.8359 50.0181 81.0386 50.1364C81.2414 50.2528 81.477 50.311 81.7455 50.311C81.9201 50.311 82.0778 50.2866 82.2186 50.2378C82.3612 50.1871 82.4842 50.112 82.5875 50.0125C82.6907 49.9111 82.7705 49.7853 82.8268 49.6351L83.4689 49.8154C83.4013 50.0331 83.2877 50.2246 83.1281 50.3898C82.9686 50.5532 82.7714 50.6808 82.5368 50.7728C82.3021 50.8629 82.0383 50.908 81.7455 50.908ZM85.212 48.2158V50.8179H84.5474V46.4924H85.1895V47.1683H85.2458C85.3472 46.9486 85.5011 46.7721 85.7077 46.6388C85.9142 46.5037 86.1808 46.4361 86.5074 46.4361C86.8003 46.4361 87.0566 46.4962 87.2762 46.6163C87.4959 46.7346 87.6667 46.9148 87.7887 47.157C87.9108 47.3973 87.9718 47.7014 87.9718 48.0694V50.8179H87.3072V48.1145C87.3072 47.7746 87.2189 47.5099 87.0425 47.3203C86.866 47.1288 86.6238 47.0331 86.3159 47.0331C86.1038 47.0331 85.9142 47.0791 85.7471 47.1711C85.5819 47.2631 85.4514 47.3973 85.3556 47.5738C85.2599 47.7502 85.212 47.9643 85.212 48.2158ZM91.0673 46.4924V47.0556H88.8257V46.4924H91.0673ZM89.4791 45.4561H90.1437V49.5788C90.1437 49.7665 90.1709 49.9073 90.2253 50.0012C90.2816 50.0932 90.353 50.1552 90.4393 50.1871C90.5276 50.2171 90.6205 50.2321 90.7181 50.2321C90.7914 50.2321 90.8514 50.2284 90.8984 50.2209C90.9453 50.2115 90.9828 50.204 91.011 50.1983L91.1462 50.7953C91.1011 50.8122 91.0382 50.8291 90.9575 50.846C90.8768 50.8648 90.7745 50.8742 90.6505 50.8742C90.4628 50.8742 90.2788 50.8338 90.0986 50.7531C89.9202 50.6724 89.7719 50.5494 89.6537 50.3842C89.5373 50.219 89.4791 50.0106 89.4791 49.759V45.4561ZM96.1785 46.4924V47.0556H93.9369V46.4924H96.1785ZM94.5902 45.4561H95.2548V49.5788C95.2548 49.7665 95.282 49.9073 95.3365 50.0012C95.3928 50.0932 95.4641 50.1552 95.5505 50.1871C95.6387 50.2171 95.7317 50.2321 95.8293 50.2321C95.9025 50.2321 95.9626 50.2284 96.0095 50.2209C96.0564 50.2115 96.094 50.204 96.1222 50.1983L96.2573 50.7953C96.2123 50.8122 96.1494 50.8291 96.0687 50.846C95.9879 50.8648 95.8856 50.8742 95.7617 50.8742C95.574 50.8742 95.39 50.8338 95.2098 50.7531C95.0314 50.6724 94.8831 50.5494 94.7648 50.3842C94.6484 50.219 94.5902 50.0106 94.5902 49.759V45.4561ZM97.9357 48.2158V50.8179H97.2711V45.0506H97.9357V47.1683H97.992C98.0934 46.9448 98.2455 46.7674 98.4482 46.636C98.6529 46.5027 98.9251 46.4361 99.2649 46.4361C99.5596 46.4361 99.8178 46.4952 100.039 46.6135C100.261 46.7299 100.433 46.9092 100.555 47.1514C100.679 47.3917 100.74 47.6977 100.74 48.0694V50.8179H100.076V48.1145C100.076 47.7709 99.9867 47.5052 99.8084 47.3175C99.6319 47.1279 99.3869 47.0331 99.0734 47.0331C98.8556 47.0331 98.6604 47.0791 98.4876 47.1711C98.3168 47.2631 98.1816 47.3973 98.0821 47.5738C97.9845 47.7502 97.9357 47.9643 97.9357 48.2158ZM101.956 50.8179V46.4924H102.621V50.8179H101.956ZM102.294 45.7715C102.165 45.7715 102.053 45.7274 101.959 45.6391C101.867 45.5509 101.821 45.4448 101.821 45.3209C101.821 45.197 101.867 45.0909 101.959 45.0027C102.053 44.9145 102.165 44.8703 102.294 44.8703C102.424 44.8703 102.535 44.9145 102.627 45.0027C102.72 45.0909 102.767 45.197 102.767 45.3209C102.767 45.4448 102.72 45.5509 102.627 45.6391C102.535 45.7274 102.424 45.7715 102.294 45.7715ZM106.902 47.4611L106.305 47.6301C106.267 47.5306 106.212 47.4339 106.139 47.34C106.068 47.2443 105.97 47.1654 105.846 47.1035C105.722 47.0415 105.563 47.0106 105.37 47.0106C105.105 47.0106 104.885 47.0716 104.708 47.1936C104.534 47.3138 104.446 47.4668 104.446 47.6526C104.446 47.8178 104.507 47.9483 104.627 48.0441C104.747 48.1398 104.935 48.2196 105.19 48.2834L105.832 48.4411C106.219 48.535 106.507 48.6786 106.696 48.872C106.886 49.0635 106.981 49.3103 106.981 49.6126C106.981 49.8604 106.91 50.0819 106.767 50.2772C106.626 50.4724 106.429 50.6264 106.175 50.739C105.922 50.8517 105.627 50.908 105.291 50.908C104.85 50.908 104.485 50.8122 104.196 50.6207C103.907 50.4293 103.724 50.1495 103.647 49.7816L104.277 49.6239C104.338 49.8567 104.451 50.0313 104.618 50.1476C104.787 50.264 105.008 50.3222 105.28 50.3222C105.59 50.3222 105.836 50.2565 106.018 50.1251C106.202 49.9918 106.294 49.8322 106.294 49.6464C106.294 49.4962 106.241 49.3704 106.136 49.269C106.031 49.1658 105.869 49.0888 105.652 49.0381L104.931 48.8692C104.535 48.7753 104.244 48.6298 104.058 48.4327C103.874 48.2337 103.782 47.9849 103.782 47.6864C103.782 47.4424 103.85 47.2265 103.987 47.0387C104.126 46.851 104.315 46.7036 104.553 46.5966C104.794 46.4896 105.066 46.4361 105.37 46.4361C105.798 46.4361 106.134 46.5299 106.378 46.7177C106.624 46.9054 106.799 47.1532 106.902 47.4611ZM111.484 50.9192C111.21 50.9192 110.962 50.8676 110.738 50.7644C110.515 50.6592 110.337 50.5081 110.206 50.311C110.075 50.112 110.009 49.8717 110.009 49.5901C110.009 49.3423 110.058 49.1414 110.155 48.9874C110.253 48.8316 110.383 48.7096 110.547 48.6213C110.71 48.5331 110.89 48.4674 111.087 48.4242C111.286 48.3792 111.486 48.3435 111.687 48.3172C111.95 48.2834 112.163 48.2581 112.326 48.2412C112.492 48.2224 112.612 48.1914 112.687 48.1482C112.764 48.1051 112.802 48.03 112.802 47.923V47.9004C112.802 47.6226 112.726 47.4067 112.574 47.2527C112.424 47.0988 112.196 47.0218 111.89 47.0218C111.573 47.0218 111.324 47.0913 111.144 47.2302C110.964 47.3691 110.837 47.5174 110.764 47.6751L110.133 47.4499C110.245 47.187 110.396 46.9824 110.583 46.836C110.773 46.6876 110.979 46.5844 111.203 46.5262C111.428 46.4661 111.65 46.4361 111.867 46.4361C112.006 46.4361 112.166 46.453 112.346 46.4868C112.528 46.5187 112.704 46.5853 112.873 46.6867C113.044 46.7881 113.185 46.9411 113.298 47.1457C113.411 47.3504 113.467 47.6245 113.467 47.968V50.8179H112.802V50.2321H112.769C112.724 50.326 112.648 50.4264 112.543 50.5334C112.438 50.6405 112.298 50.7315 112.124 50.8066C111.949 50.8817 111.736 50.9192 111.484 50.9192ZM111.586 50.3222C111.849 50.3222 112.07 50.2706 112.25 50.1674C112.433 50.0641 112.57 49.9308 112.662 49.7675C112.755 49.6041 112.802 49.4324 112.802 49.2521V48.6439C112.774 48.6777 112.712 48.7086 112.617 48.7368C112.523 48.7631 112.414 48.7866 112.29 48.8072C112.168 48.826 112.049 48.8429 111.932 48.8579C111.818 48.871 111.725 48.8823 111.653 48.8917C111.481 48.9142 111.319 48.9508 111.169 49.0015C111.021 49.0503 110.901 49.1245 110.809 49.224C110.719 49.3216 110.673 49.4549 110.673 49.6239C110.673 49.8548 110.759 50.0294 110.93 50.1476C111.102 50.264 111.321 50.3222 111.586 50.3222ZM116.561 46.4924V47.0556H114.32V46.4924H116.561ZM114.973 45.4561H115.637V49.5788C115.637 49.7665 115.665 49.9073 115.719 50.0012C115.775 50.0932 115.847 50.1552 115.933 50.1871C116.021 50.2171 116.114 50.2321 116.212 50.2321C116.285 50.2321 116.345 50.2284 116.392 50.2209C116.439 50.2115 116.477 50.204 116.505 50.1983L116.64 50.7953C116.595 50.8122 116.532 50.8291 116.451 50.846C116.371 50.8648 116.268 50.8742 116.144 50.8742C115.957 50.8742 115.773 50.8338 115.592 50.7531C115.414 50.6724 115.266 50.5494 115.147 50.3842C115.031 50.219 114.973 50.0106 114.973 49.759V45.4561ZM121.672 46.4924V47.0556H119.431V46.4924H121.672ZM120.084 45.4561H120.749V49.5788C120.749 49.7665 120.776 49.9073 120.83 50.0012C120.887 50.0932 120.958 50.1552 121.044 50.1871C121.133 50.2171 121.225 50.2321 121.323 50.2321C121.396 50.2321 121.456 50.2284 121.503 50.2209C121.55 50.2115 121.588 50.204 121.616 50.1983L121.751 50.7953C121.706 50.8122 121.643 50.8291 121.562 50.846C121.482 50.8648 121.379 50.8742 121.256 50.8742C121.068 50.8742 120.884 50.8338 120.704 50.7531C120.525 50.6724 120.377 50.5494 120.259 50.3842C120.142 50.219 120.084 50.0106 120.084 49.759V45.4561ZM123.43 48.2158V50.8179H122.765V45.0506H123.43V47.1683H123.486C123.587 46.9448 123.739 46.7674 123.942 46.636C124.147 46.5027 124.419 46.4361 124.759 46.4361C125.053 46.4361 125.312 46.4952 125.533 46.6135C125.755 46.7299 125.926 46.9092 126.048 47.1514C126.172 47.3917 126.234 47.6977 126.234 48.0694V50.8179H125.57V48.1145C125.57 47.7709 125.481 47.5052 125.302 47.3175C125.126 47.1279 124.881 47.0331 124.567 47.0331C124.349 47.0331 124.154 47.0791 123.981 47.1711C123.811 47.2631 123.675 47.3973 123.576 47.5738C123.478 47.7502 123.43 47.9643 123.43 48.2158ZM129.264 50.908C128.847 50.908 128.487 50.816 128.185 50.632C127.885 50.4462 127.653 50.1871 127.49 49.8548C127.328 49.5206 127.247 49.132 127.247 48.6889C127.247 48.2459 127.328 47.8554 127.49 47.5174C127.653 47.1776 127.88 46.9129 128.171 46.7233C128.464 46.5318 128.806 46.4361 129.196 46.4361C129.421 46.4361 129.644 46.4736 129.863 46.5487C130.083 46.6238 130.283 46.7458 130.463 46.9148C130.644 47.0819 130.787 47.3034 130.894 47.5794C131.001 47.8554 131.055 48.1952 131.055 48.5988V48.8804H127.72V48.3059H130.379C130.379 48.0619 130.33 47.8441 130.232 47.6526C130.137 47.4611 130 47.31 129.821 47.1992C129.645 47.0885 129.436 47.0331 129.196 47.0331C128.931 47.0331 128.702 47.0988 128.509 47.2302C128.317 47.3597 128.17 47.5287 128.067 47.7371C127.964 47.9455 127.912 48.1689 127.912 48.4073V48.7903C127.912 49.117 127.968 49.3939 128.081 49.621C128.195 49.8463 128.354 50.0181 128.557 50.1364C128.76 50.2528 128.995 50.311 129.264 50.311C129.438 50.311 129.596 50.2866 129.737 50.2378C129.879 50.1871 130.002 50.112 130.106 50.0125C130.209 49.9111 130.289 49.7853 130.345 49.6351L130.987 49.8154C130.92 50.0331 130.806 50.2246 130.646 50.3898C130.487 50.5532 130.29 50.6808 130.055 50.7728C129.82 50.8629 129.557 50.908 129.264 50.908ZM137.833 46.4924L136.233 50.8179H135.558L133.958 46.4924H134.679L135.873 49.9393H135.918L137.112 46.4924H137.833ZM140.369 50.908C139.952 50.908 139.593 50.816 139.29 50.632C138.99 50.4462 138.758 50.1871 138.595 49.8548C138.433 49.5206 138.353 49.132 138.353 48.6889C138.353 48.2459 138.433 47.8554 138.595 47.5174C138.758 47.1776 138.985 46.9129 139.276 46.7233C139.569 46.5318 139.911 46.4361 140.301 46.4361C140.527 46.4361 140.749 46.4736 140.969 46.5487C141.188 46.6238 141.388 46.7458 141.568 46.9148C141.749 47.0819 141.892 47.3034 141.999 47.5794C142.106 47.8554 142.16 48.1952 142.16 48.5988V48.8804H138.826V48.3059H141.484C141.484 48.0619 141.435 47.8441 141.338 47.6526C141.242 47.4611 141.105 47.31 140.926 47.1992C140.75 47.0885 140.542 47.0331 140.301 47.0331C140.037 47.0331 139.807 47.0988 139.614 47.2302C139.423 47.3597 139.275 47.5287 139.172 47.7371C139.069 47.9455 139.017 48.1689 139.017 48.4073V48.7903C139.017 49.117 139.073 49.3939 139.186 49.621C139.301 49.8463 139.459 50.0181 139.662 50.1364C139.865 50.2528 140.1 50.311 140.369 50.311C140.543 50.311 140.701 50.2866 140.842 50.2378C140.985 50.1871 141.108 50.112 141.211 50.0125C141.314 49.9111 141.394 49.7853 141.45 49.6351L142.092 49.8154C142.025 50.0331 141.911 50.2246 141.752 50.3898C141.592 50.5532 141.395 50.6808 141.16 50.7728C140.925 50.8629 140.662 50.908 140.369 50.908ZM143.835 48.2158V50.8179H143.171V46.4924H143.813V47.1683H143.869C143.971 46.9486 144.125 46.7721 144.331 46.6388C144.538 46.5037 144.804 46.4361 145.131 46.4361C145.424 46.4361 145.68 46.4962 145.9 46.6163C146.119 46.7346 146.29 46.9148 146.412 47.157C146.534 47.3973 146.595 47.7014 146.595 48.0694V50.8179H145.931V48.1145C145.931 47.7746 145.842 47.5099 145.666 47.3203C145.489 47.1288 145.247 47.0331 144.939 47.0331C144.727 47.0331 144.538 47.0791 144.37 47.1711C144.205 47.2631 144.075 47.3973 143.979 47.5738C143.883 47.7502 143.835 47.9643 143.835 48.2158ZM150.536 49.0494V46.4924H151.2V50.8179H150.536V50.0857H150.49C150.389 50.3053 150.231 50.4921 150.017 50.6461C149.803 50.7982 149.533 50.8742 149.206 50.8742C148.936 50.8742 148.696 50.8151 148.485 50.6968C148.275 50.5766 148.11 50.3964 147.99 50.1561C147.87 49.9139 147.81 49.6088 147.81 49.2409V46.4924H148.474V49.1958C148.474 49.5112 148.562 49.7628 148.739 49.9505C148.917 50.1383 149.144 50.2321 149.42 50.2321C149.586 50.2321 149.754 50.1899 149.924 50.1054C150.097 50.0209 150.242 49.8914 150.358 49.7168C150.476 49.5422 150.536 49.3197 150.536 49.0494ZM154.231 50.908C153.814 50.908 153.455 50.816 153.152 50.632C152.852 50.4462 152.62 50.1871 152.457 49.8548C152.295 49.5206 152.215 49.132 152.215 48.6889C152.215 48.2459 152.295 47.8554 152.457 47.5174C152.62 47.1776 152.847 46.9129 153.138 46.7233C153.431 46.5318 153.773 46.4361 154.163 46.4361C154.389 46.4361 154.611 46.4736 154.831 46.5487C155.05 46.6238 155.25 46.7458 155.431 46.9148C155.611 47.0819 155.754 47.3034 155.861 47.5794C155.968 47.8554 156.022 48.1952 156.022 48.5988V48.8804H152.688V48.3059H155.346C155.346 48.0619 155.297 47.8441 155.2 47.6526C155.104 47.4611 154.967 47.31 154.788 47.1992C154.612 47.0885 154.404 47.0331 154.163 47.0331C153.899 47.0331 153.67 47.0988 153.476 47.2302C153.285 47.3597 153.137 47.5287 153.034 47.7371C152.931 47.9455 152.879 48.1689 152.879 48.4073V48.7903C152.879 49.117 152.935 49.3939 153.048 49.621C153.163 49.8463 153.321 50.0181 153.524 50.1364C153.727 50.2528 153.962 50.311 154.231 50.311C154.405 50.311 154.563 50.2866 154.704 50.2378C154.847 50.1871 154.97 50.112 155.073 50.0125C155.176 49.9111 155.256 49.7853 155.312 49.6351L155.954 49.8154C155.887 50.0331 155.773 50.2246 155.614 50.3898C155.454 50.5532 155.257 50.6808 155.022 50.7728C154.788 50.8629 154.524 50.908 154.231 50.908ZM157.517 50.8629C157.378 50.8629 157.259 50.8132 157.16 50.7137C157.06 50.6142 157.01 50.495 157.01 50.356C157.01 50.2171 157.06 50.0979 157.16 49.9984C157.259 49.8989 157.378 49.8491 157.517 49.8491C157.656 49.8491 157.775 49.8989 157.875 49.9984C157.974 50.0979 158.024 50.2171 158.024 50.356C158.024 50.448 158.001 50.5325 157.954 50.6095C157.909 50.6865 157.848 50.7484 157.771 50.7953C157.696 50.8404 157.611 50.8629 157.517 50.8629Z" fill="black"/>
<rect x="37.7996" y="64.713" width="145.825" height="30.895" rx="6.93878" fill="white"/>
<path d="M53.1075 85.6605L54.9999 74.1259H56.5769L54.6845 85.6605H53.1075ZM47.909 82.6867L48.1737 81.1097H57.05L56.7853 82.6867H47.909ZM49.0524 85.6605L50.9448 74.1259H52.5217L50.6294 85.6605H49.0524ZM48.5793 78.6767L48.8383 77.0997H57.7146L57.4555 78.6767H48.5793ZM59.0564 74.1259H61.6134L65.0377 82.484H65.1729L68.5972 74.1259H71.1542V85.6605H69.1492V77.7361H69.0422L65.8544 85.6267H64.3562L61.1685 77.7192H61.0615V85.6605H59.0564V74.1259ZM73.4296 85.6605V74.1259H80.9316V75.8775H75.5191V79.009H80.543V80.7605H75.5191V83.9089H80.9766V85.6605H73.4296ZM82.5565 75.8775V74.1259H91.7593V75.8775H88.1942V85.6605H86.1216V75.8775H82.5565ZM95.623 74.1259V85.6605H93.5335V74.1259H95.623ZM97.8857 74.1259H100.443L103.867 82.484H104.002L107.426 74.1259H109.983V85.6605H107.978V77.7361H107.871L104.684 85.6267H103.186L99.9977 77.7192H99.8907V85.6605H97.8857V74.1259ZM112.259 85.6605V74.1259H119.761V75.8775H114.348V79.009H119.372V80.7605H114.348V83.9089H119.806V85.6605H112.259ZM121.893 85.6605V74.1259H129.395V75.8775H123.982V79.009H129.006V80.7605H123.982V83.9089H129.44V85.6605H121.893ZM141.005 74.1259V85.6605H139.147L133.712 77.8037H133.616V85.6605H131.526V74.1259H133.396L138.826 81.9883H138.927V74.1259H141.005ZM142.775 75.8775V74.1259H151.978V75.8775H148.413V85.6605H146.34V75.8775H142.775ZM153.752 85.6605V74.1259H158.078C158.964 74.1259 159.707 74.2798 160.308 74.5877C160.912 74.8956 161.369 75.3274 161.677 75.8831C161.988 76.4351 162.144 77.079 162.144 77.8149C162.144 78.5546 161.986 79.1967 161.671 79.7411C161.359 80.2818 160.899 80.7005 160.291 80.9971C159.683 81.29 158.936 81.4364 158.049 81.4364H154.969V79.7017H157.768C158.286 79.7017 158.71 79.6304 159.041 79.4877C159.371 79.3412 159.615 79.1291 159.773 78.8513C159.934 78.5696 160.015 78.2242 160.015 77.8149C160.015 77.4057 159.934 77.0565 159.773 76.7674C159.611 76.4745 159.365 76.253 159.035 76.1028C158.705 75.9488 158.278 75.8719 157.757 75.8719H155.842V85.6605H153.752ZM159.711 80.4339L162.566 85.6605H160.235L157.43 80.4339H159.711ZM162.83 74.1259H165.19L168.011 79.2286H168.124L170.946 74.1259H173.305L169.11 81.3575V85.6605H167.026V81.3575L162.83 74.1259Z" fill="black"/>
</g>
<rect x="25.96" y="11.2232" width="169.504" height="96.0321" rx="11.6472" stroke="url(#paint0_linear_6_11615)" stroke-width="0.495627"/>
<path d="M245.76 107.528H244.365V100.958H245.76V103.407H252.365V105.079H245.76V107.528ZM248.896 98.2429H252.365V99.907H244.365V98.2898H247.424V98.2195C247.069 98.0841 246.792 97.8653 246.592 97.5632C246.388 97.2611 246.287 96.8822 246.287 96.4265C246.287 96.0098 246.378 95.6466 246.56 95.3367C246.74 95.0242 246.999 94.782 247.338 94.6101C247.674 94.4356 248.076 94.3497 248.545 94.3523H252.365V96.0164H248.842C248.472 96.0138 248.184 96.1075 247.978 96.2976C247.773 96.4851 247.67 96.7481 247.67 97.0867C247.67 97.3132 247.718 97.5138 247.814 97.6882C247.911 97.8601 248.051 97.9955 248.236 98.0945C248.418 98.1908 248.638 98.2403 248.896 98.2429ZM252.478 91.3318C252.478 91.7146 252.412 92.0557 252.279 92.3552C252.144 92.6547 251.944 92.8917 251.681 93.0662C251.416 93.238 251.085 93.324 250.689 93.324C250.356 93.324 250.076 93.2628 249.849 93.1404C249.623 93.018 249.441 92.8513 249.302 92.6404C249.164 92.4294 249.06 92.1899 248.99 91.9216C248.92 91.6508 248.87 91.3669 248.842 91.0701C248.805 90.7211 248.771 90.4399 248.74 90.2263C248.706 90.0128 248.657 89.8578 248.592 89.7615C248.526 89.6651 248.43 89.6169 248.302 89.6169H248.279C248.032 89.6169 247.84 89.6951 247.705 89.8513C247.569 90.005 247.502 90.2237 247.502 90.5076C247.502 90.807 247.568 91.0453 247.701 91.2224C247.831 91.3995 247.995 91.5167 248.193 91.574L248.068 93.113C247.704 93.0349 247.388 92.8813 247.123 92.6521C246.855 92.4229 246.649 92.1274 246.506 91.7654C246.36 91.4008 246.287 90.9789 246.287 90.4998C246.287 90.1664 246.326 89.8474 246.404 89.5427C246.482 89.2354 246.603 88.9633 246.767 88.7263C246.931 88.4867 247.142 88.2979 247.4 88.1599C247.655 88.0219 247.961 87.9529 248.318 87.9529H252.365V89.531H251.533V89.5779C251.72 89.6742 251.886 89.8031 252.029 89.9646C252.17 90.1261 252.28 90.3201 252.361 90.5466C252.439 90.7732 252.478 91.0349 252.478 91.3318ZM251.33 90.8552C251.33 90.6104 251.282 90.3943 251.185 90.2068C251.086 90.0193 250.954 89.8722 250.787 89.7654C250.62 89.6586 250.431 89.6052 250.22 89.6052H249.584C249.618 89.6573 249.649 89.7289 249.677 89.8201C249.704 89.9086 249.728 90.0089 249.752 90.1208C249.773 90.2328 249.792 90.3448 249.81 90.4568C249.826 90.5688 249.84 90.6703 249.853 90.7615C249.882 90.9568 249.927 91.1274 249.99 91.2732C250.052 91.419 250.137 91.5323 250.244 91.613C250.348 91.6938 250.478 91.7341 250.635 91.7341C250.861 91.7341 251.034 91.6521 251.154 91.488C251.271 91.3214 251.33 91.1104 251.33 90.8552ZM248.896 84.9978H252.365V86.6619H246.365V85.0759H247.424V85.0056C247.075 84.8728 246.799 84.6501 246.595 84.3376C246.39 84.0251 246.287 83.6462 246.287 83.2009C246.287 82.7843 246.378 82.421 246.56 82.1111C246.743 81.8012 247.003 81.5603 247.342 81.3884C247.677 81.2166 248.079 81.1306 248.545 81.1306H252.365V82.7947H248.842C248.474 82.7921 248.188 82.8858 247.982 83.0759C247.774 83.266 247.67 83.5278 247.67 83.8611C247.67 84.085 247.718 84.283 247.814 84.4548C247.911 84.6241 248.051 84.7569 248.236 84.8533C248.418 84.947 248.638 84.9952 248.896 84.9978ZM252.463 77.6082C252.463 78.0639 252.345 78.4766 252.111 78.8464C251.874 79.2136 251.526 79.5053 251.068 79.7214C250.607 79.935 250.042 80.0417 249.373 80.0417C248.685 80.0417 248.114 79.9311 247.658 79.7097C247.2 79.4884 246.857 79.1941 246.631 78.8269C246.401 78.4571 246.287 78.0522 246.287 77.6121C246.287 77.2761 246.344 76.9962 246.459 76.7722C246.571 76.5457 246.711 76.3634 246.881 76.2253C247.047 76.0847 247.211 75.9779 247.373 75.905V75.8542H244.365V74.1941H252.365V75.8347H251.404V75.905C251.571 75.9832 251.736 76.0938 251.9 76.2371C252.062 76.3777 252.196 76.5613 252.302 76.7878C252.409 77.0118 252.463 77.2852 252.463 77.6082ZM251.138 77.0808C251.138 76.8126 251.066 76.586 250.92 76.4011C250.771 76.2136 250.564 76.0704 250.299 75.9714C250.033 75.8699 249.722 75.8191 249.365 75.8191C249.008 75.8191 248.698 75.8686 248.435 75.9675C248.172 76.0665 247.969 76.2097 247.826 76.3972C247.683 76.5847 247.611 76.8126 247.611 77.0808C247.611 77.3542 247.685 77.5847 247.834 77.7722C247.982 77.9597 248.188 78.1016 248.451 78.198C248.714 78.2944 249.019 78.3425 249.365 78.3425C249.714 78.3425 250.023 78.2944 250.291 78.198C250.556 78.099 250.765 77.9571 250.916 77.7722C251.064 77.5847 251.138 77.3542 251.138 77.0808ZM252.365 72.8259H246.365V71.1619H252.365V72.8259ZM245.592 71.99C245.592 72.2374 245.51 72.4496 245.345 72.6267C245.179 72.8012 244.98 72.8884 244.748 72.8884C244.519 72.8884 244.322 72.8012 244.158 72.6267C243.991 72.4496 243.908 72.2374 243.908 71.99C243.908 71.7426 243.991 71.5317 244.158 71.3572C244.322 71.1801 244.519 71.0916 244.748 71.0916C244.98 71.0916 245.179 71.1801 245.345 71.3572C245.51 71.5317 245.592 71.7426 245.592 71.99ZM244.365 67.2517V65.1658L249.74 62.9626V62.8689L244.365 60.6658V58.5798H252.365V60.2205H247.158V60.2869L252.326 62.3572V63.4744L247.138 65.5447V65.6111H252.365V67.2517H244.365ZM252.478 55.5066C252.478 55.8894 252.412 56.2306 252.279 56.53C252.144 56.8295 251.944 57.0665 251.681 57.241C251.416 57.4128 251.085 57.4988 250.689 57.4988C250.356 57.4988 250.076 57.4376 249.849 57.3152C249.623 57.1928 249.441 57.0261 249.302 56.8152C249.164 56.6042 249.06 56.3647 248.99 56.0964C248.92 55.8256 248.87 55.5417 248.842 55.2449C248.805 54.8959 248.771 54.6147 248.74 54.4011C248.706 54.1876 248.657 54.0326 248.592 53.9363C248.526 53.8399 248.43 53.7917 248.302 53.7917H248.279C248.032 53.7917 247.84 53.8699 247.705 54.0261C247.569 54.1798 247.502 54.3985 247.502 54.6824C247.502 54.9819 247.568 55.2201 247.701 55.3972C247.831 55.5743 247.995 55.6915 248.193 55.7488L248.068 57.2878C247.704 57.2097 247.388 57.0561 247.123 56.8269C246.855 56.5977 246.649 56.3022 246.506 55.9402C246.36 55.5756 246.287 55.1537 246.287 54.6746C246.287 54.3412 246.326 54.0222 246.404 53.7175C246.482 53.4102 246.603 53.1381 246.767 52.9011C246.931 52.6615 247.142 52.4727 247.4 52.3347C247.655 52.1967 247.961 52.1277 248.318 52.1277H252.365V53.7058H251.533V53.7527C251.72 53.849 251.886 53.9779 252.029 54.1394C252.17 54.3009 252.28 54.4949 252.361 54.7214C252.439 54.948 252.478 55.2097 252.478 55.5066ZM251.33 55.03C251.33 54.7852 251.282 54.5691 251.185 54.3816C251.086 54.1941 250.954 54.047 250.787 53.9402C250.62 53.8334 250.431 53.78 250.22 53.78H249.584C249.618 53.8321 249.649 53.9037 249.677 53.9949C249.704 54.0834 249.728 54.1837 249.752 54.2957C249.773 54.4076 249.792 54.5196 249.81 54.6316C249.826 54.7436 249.84 54.8451 249.853 54.9363C249.882 55.1316 249.927 55.3022 249.99 55.448C250.052 55.5938 250.137 55.7071 250.244 55.7878C250.348 55.8686 250.478 55.9089 250.635 55.9089C250.861 55.9089 251.034 55.8269 251.154 55.6628C251.271 55.4962 251.33 55.2852 251.33 55.03ZM248.896 49.1726H252.365V50.8367H244.365V49.2195H247.424V49.1492C247.069 49.0138 246.792 48.795 246.592 48.4929C246.388 48.1908 246.287 47.8119 246.287 47.3562C246.287 46.9395 246.378 46.5763 246.56 46.2664C246.74 45.9539 246.999 45.7117 247.338 45.5398C247.674 45.3653 248.076 45.2794 248.545 45.282H252.365V46.946H248.842C248.472 46.9434 248.184 47.0372 247.978 47.2273C247.773 47.4148 247.67 47.6778 247.67 48.0164C247.67 48.2429 247.718 48.4434 247.814 48.6179C247.911 48.7898 248.051 48.9252 248.236 49.0242C248.418 49.1205 248.638 49.17 248.896 49.1726ZM244.365 42.3083H252.365V43.9724H244.365V42.3083ZM252.478 39.2644C252.478 39.6472 252.412 39.9884 252.279 40.2878C252.144 40.5873 251.944 40.8243 251.681 40.9988C251.416 41.1707 251.085 41.2566 250.689 41.2566C250.356 41.2566 250.076 41.1954 249.849 41.073C249.623 40.9506 249.441 40.7839 249.302 40.573C249.164 40.3621 249.06 40.1225 248.99 39.8542C248.92 39.5834 248.87 39.2996 248.842 39.0027C248.805 38.6537 248.771 38.3725 248.74 38.1589C248.706 37.9454 248.657 37.7904 248.592 37.6941C248.526 37.5977 248.43 37.5496 248.302 37.5496H248.279C248.032 37.5496 247.84 37.6277 247.705 37.7839C247.569 37.9376 247.502 38.1563 247.502 38.4402C247.502 38.7397 247.568 38.9779 247.701 39.155C247.831 39.3321 247.995 39.4493 248.193 39.5066L248.068 41.0457C247.704 40.9675 247.388 40.8139 247.123 40.5847C246.855 40.3556 246.649 40.06 246.506 39.698C246.36 39.3334 246.287 38.9115 246.287 38.4324C246.287 38.099 246.326 37.78 246.404 37.4753C246.482 37.168 246.603 36.8959 246.767 36.6589C246.931 36.4194 247.142 36.2306 247.4 36.0925C247.655 35.9545 247.961 35.8855 248.318 35.8855H252.365V37.4636H251.533V37.5105C251.72 37.6069 251.886 37.7358 252.029 37.8972C252.17 38.0587 252.28 38.2527 252.361 38.4792C252.439 38.7058 252.478 38.9675 252.478 39.2644ZM251.33 38.7878C251.33 38.543 251.282 38.3269 251.185 38.1394C251.086 37.9519 250.954 37.8048 250.787 37.698C250.62 37.5912 250.431 37.5378 250.22 37.5378H249.584C249.618 37.5899 249.649 37.6615 249.677 37.7527C249.704 37.8412 249.728 37.9415 249.752 38.0535C249.773 38.1654 249.792 38.2774 249.81 38.3894C249.826 38.5014 249.84 38.6029 249.853 38.6941C249.882 38.8894 249.927 39.06 249.99 39.2058C250.052 39.3516 250.137 39.4649 250.244 39.5457C250.348 39.6264 250.478 39.6667 250.635 39.6667C250.861 39.6667 251.034 39.5847 251.154 39.4207C251.271 39.254 251.33 39.0431 251.33 38.7878ZM248.896 32.9304H252.365V34.5945H246.365V33.0085H247.424V32.9382C247.075 32.8054 246.799 32.5828 246.595 32.2703C246.39 31.9578 246.287 31.5789 246.287 31.1335C246.287 30.7169 246.378 30.3536 246.56 30.0437C246.743 29.7338 247.003 29.4929 247.342 29.321C247.677 29.1492 248.079 29.0632 248.545 29.0632H252.365V30.7273H248.842C248.474 30.7247 248.188 30.8184 247.982 31.0085C247.774 31.1986 247.67 31.4604 247.67 31.7937C247.67 32.0177 247.718 32.2156 247.814 32.3875C247.911 32.5567 248.051 32.6895 248.236 32.7859C248.418 32.8796 248.638 32.9278 248.896 32.9304ZM254.74 25.0486C254.74 25.5876 254.666 26.0499 254.517 26.4353C254.372 26.8181 254.172 27.1228 253.92 27.3494C253.667 27.5759 253.383 27.7231 253.068 27.7908L252.861 26.2517C252.981 26.2048 253.093 26.1306 253.197 26.0291C253.301 25.9275 253.385 25.7934 253.447 25.6267C253.512 25.4574 253.545 25.2517 253.545 25.0095C253.545 24.6475 253.456 24.3494 253.279 24.115C253.105 23.878 252.812 23.7595 252.4 23.7595H251.302V23.8298C251.469 23.9028 251.627 24.0121 251.775 24.158C251.924 24.3038 252.045 24.4913 252.138 24.7205C252.232 24.9496 252.279 25.2231 252.279 25.5408C252.279 25.9913 252.175 26.4014 251.967 26.7712C251.756 27.1384 251.434 27.4314 251.002 27.6501C250.567 27.8663 250.017 27.9744 249.353 27.9744C248.674 27.9744 248.106 27.8637 247.65 27.6423C247.194 27.421 246.853 27.1267 246.627 26.7595C246.4 26.3897 246.287 25.9848 246.287 25.5447C246.287 25.2087 246.344 24.9275 246.459 24.7009C246.571 24.4744 246.711 24.2921 246.881 24.1541C247.047 24.0134 247.211 23.9054 247.373 23.8298V23.7673H246.365V22.115H252.424C252.934 22.115 253.361 22.24 253.705 22.49C254.049 22.74 254.306 23.0863 254.478 23.5291C254.653 23.9692 254.74 24.4757 254.74 25.0486ZM251.029 25.0134C251.029 24.7452 250.963 24.5186 250.83 24.3337C250.694 24.1462 250.502 24.003 250.252 23.9041C249.999 23.8025 249.697 23.7517 249.345 23.7517C248.994 23.7517 248.689 23.8012 248.431 23.9001C248.171 23.9991 247.969 24.1423 247.826 24.3298C247.683 24.5173 247.611 24.7452 247.611 25.0134C247.611 25.2869 247.685 25.5173 247.834 25.7048C247.98 25.8923 248.183 26.0343 248.443 26.1306C248.704 26.227 249.004 26.2751 249.345 26.2751C249.692 26.2751 249.991 26.227 250.244 26.1306C250.494 26.0317 250.688 25.8897 250.826 25.7048C250.961 25.5173 251.029 25.2869 251.029 25.0134ZM249.81 16.9431H246.365V15.2791H252.365V16.8767H251.275V16.9392C251.627 17.0746 251.909 17.2999 252.123 17.615C252.336 17.9275 252.443 18.309 252.443 18.7595C252.443 19.1606 252.352 19.5134 252.17 19.8181C251.987 20.1228 251.728 20.3611 251.392 20.533C251.056 20.7022 250.654 20.7882 250.185 20.7908H246.365V19.1267H249.888C250.243 19.1241 250.523 19.0291 250.728 18.8416C250.934 18.6541 251.037 18.4028 251.037 18.0876C251.037 17.8871 250.991 17.6996 250.9 17.5251C250.806 17.3507 250.668 17.21 250.486 17.1033C250.304 16.9939 250.079 16.9405 249.81 16.9431Z" fill="white"/>
<path d="M267.809 87.6901C267.807 88.2512 267.659 88.7306 267.365 89.1283C267.072 89.526 266.644 89.8302 266.083 90.0409C265.522 90.2516 264.846 90.357 264.056 90.357C263.267 90.357 262.594 90.2516 262.035 90.0409C261.476 89.8279 261.05 89.5225 260.757 89.1248C260.463 88.7247 260.316 88.2464 260.316 87.6901C260.316 87.1338 260.464 86.6567 260.76 86.259C261.054 85.8613 261.48 85.557 262.039 85.3463C262.595 85.1333 263.267 85.0267 264.056 85.0267C264.849 85.0267 265.526 85.1321 266.087 85.3428C266.646 85.5535 267.073 85.8577 267.369 86.2554C267.662 86.6532 267.809 87.1314 267.809 87.6901ZM266.861 87.6901C266.861 87.1977 266.621 86.813 266.14 86.536C265.66 86.2566 264.965 86.1169 264.056 86.1169C263.452 86.1169 262.942 86.1809 262.525 86.3087C262.106 86.4342 261.789 86.6153 261.573 86.852C261.356 87.0864 261.247 87.3658 261.247 87.6901C261.247 88.1802 261.488 88.5649 261.971 88.8442C262.454 89.1236 263.149 89.2644 264.056 89.2668C264.662 89.2668 265.174 89.2041 265.593 89.0786C266.01 88.9508 266.326 88.7696 266.541 88.5353C266.755 88.3009 266.861 88.0192 266.861 87.6901ZM267.788 81.3096C267.788 81.8186 267.7 82.2684 267.525 82.659C267.35 83.0473 267.108 83.3515 266.801 83.5717C266.493 83.7918 266.143 83.9007 265.75 83.8984C265.442 83.9007 265.159 83.838 264.901 83.7102C264.64 83.58 264.424 83.4036 264.251 83.181C264.076 82.9585 263.965 82.7099 263.917 82.4353H263.875C263.787 82.7975 263.593 83.0875 263.292 83.3053C262.992 83.5231 262.646 83.6309 262.255 83.6285C261.884 83.6309 261.552 83.5326 261.261 83.3337C260.967 83.1325 260.737 82.8567 260.568 82.5063C260.4 82.1559 260.316 81.757 260.316 81.3096C260.316 80.8669 260.402 80.4715 260.572 80.1235C260.74 79.7731 260.971 79.4973 261.264 79.2961C261.556 79.0949 261.886 78.9931 262.255 78.9907C262.646 78.9931 262.992 79.1043 263.292 79.3245C263.593 79.5447 263.787 79.8311 263.875 80.1839H263.917C263.965 79.9116 264.076 79.6666 264.251 79.4488C264.424 79.2286 264.64 79.0534 264.901 78.9232C265.159 78.7907 265.442 78.7232 265.75 78.7208C266.143 78.7232 266.493 78.8345 266.801 79.0546C267.108 79.2748 267.35 79.5802 267.525 79.9708C267.7 80.3591 267.788 80.8053 267.788 81.3096ZM266.889 81.3096C266.889 81.0089 266.84 80.7485 266.74 80.5283C266.639 80.3082 266.498 80.1377 266.318 80.017C266.135 79.8962 265.922 79.8347 265.679 79.8323C265.425 79.8347 265.201 79.901 265.007 80.0312C264.813 80.159 264.661 80.333 264.549 80.5532C264.438 80.7734 264.382 81.0255 264.382 81.3096C264.382 81.5961 264.438 81.8505 264.549 82.0731C264.661 82.2956 264.813 82.4708 265.007 82.5987C265.201 82.7265 265.425 82.7892 265.679 82.7869C265.922 82.7892 266.135 82.7312 266.318 82.6129C266.498 82.4921 266.639 82.3205 266.74 82.0979C266.84 81.8754 266.889 81.6126 266.889 81.3096ZM263.505 81.3096C263.505 81.0681 263.457 80.8539 263.36 80.6668C263.263 80.4798 263.128 80.333 262.955 80.2265C262.782 80.1176 262.58 80.062 262.348 80.0596C262.12 80.062 261.921 80.1164 261.751 80.2229C261.581 80.3271 261.449 80.4727 261.357 80.6597C261.262 80.8468 261.215 81.0634 261.215 81.3096C261.215 81.5605 261.262 81.7807 261.357 81.9701C261.449 82.1571 261.581 82.3027 261.751 82.4069C261.921 82.5111 262.12 82.562 262.348 82.5596C262.58 82.562 262.782 82.5099 262.955 82.4033C263.128 82.2968 263.263 82.15 263.36 81.963C263.457 81.7736 263.505 81.5558 263.505 81.3096ZM260.416 74.6894H267.688V75.7902H261.517V75.8329L262.653 77.5729H261.602L260.416 75.7583V74.6894ZM267.788 70.3215C267.788 70.7666 267.703 71.1667 267.532 71.5218C267.359 71.8745 267.123 72.1562 266.822 72.3669C266.521 72.5776 266.178 72.6901 265.792 72.7043V71.639C266.105 71.6129 266.362 71.4744 266.563 71.2235C266.764 70.9725 266.865 70.6719 266.865 70.3215C266.865 70.0421 266.801 69.7947 266.673 69.5793C266.543 69.3615 266.364 69.191 266.137 69.0679C265.909 68.9425 265.65 68.8797 265.359 68.8797C265.063 68.8797 264.799 68.9436 264.567 69.0715C264.335 69.1993 264.153 69.3757 264.02 69.6006C263.888 69.8231 263.82 70.0788 263.818 70.3677C263.818 70.5878 263.856 70.8092 263.931 71.0317C264.007 71.2543 264.107 71.4342 264.23 71.5715L264.081 72.5765L260.416 72.1681V68.1695H261.357V71.2554L263.392 71.4863V71.4436C263.254 71.3016 263.139 71.1134 263.047 70.879C262.955 70.6423 262.909 70.389 262.909 70.1191C262.909 69.6764 263.014 69.2822 263.225 68.9365C263.435 68.5885 263.723 68.3151 264.088 68.1162C264.45 67.915 264.867 67.8156 265.338 67.8179C265.809 67.8156 266.229 67.9221 266.598 68.1375C266.968 68.3506 267.259 68.6465 267.472 69.0253C267.683 69.4017 267.788 69.8338 267.788 70.3215ZM267.788 63.9818C267.783 64.3062 267.724 64.6258 267.61 64.9406C267.497 65.2531 267.307 65.5372 267.042 65.7929C266.777 66.0486 266.421 66.2534 265.973 66.4072C265.526 66.5588 264.967 66.6345 264.297 66.6345C263.663 66.6345 263.099 66.5718 262.607 66.4463C262.114 66.3185 261.699 66.135 261.36 65.8959C261.019 65.6568 260.76 65.3679 260.583 65.0294C260.405 64.6909 260.316 64.3109 260.316 63.8895C260.316 63.4563 260.402 63.0715 260.572 62.7354C260.742 62.3992 260.978 62.1269 261.279 61.9186C261.579 61.7079 261.921 61.5742 262.305 61.5173V62.6004C262.002 62.6738 261.755 62.8194 261.563 63.0372C261.371 63.255 261.275 63.5391 261.275 63.8895C261.275 64.4222 261.507 64.8376 261.971 65.1359C262.435 65.4319 263.08 65.581 263.907 65.5834V65.5301C263.701 65.4046 263.525 65.2508 263.381 65.0685C263.234 64.8838 263.122 64.6778 263.044 64.4506C262.963 64.2209 262.923 63.9795 262.923 63.7261C262.923 63.3047 263.026 62.9236 263.232 62.5827C263.435 62.2394 263.717 61.966 264.077 61.7624C264.437 61.5588 264.849 61.457 265.313 61.457C265.777 61.457 266.197 61.5623 266.573 61.773C266.95 61.9813 267.248 62.2749 267.468 62.6537C267.686 63.0325 267.793 63.4752 267.788 63.9818ZM266.865 63.9854C266.865 63.706 266.796 63.4563 266.659 63.2361C266.521 63.0159 266.337 62.8419 266.105 62.7141C265.873 62.5862 265.613 62.5223 265.327 62.5223C265.048 62.5223 264.793 62.585 264.563 62.7105C264.334 62.8336 264.152 63.0041 264.017 63.2219C263.882 63.4373 263.814 63.6835 263.814 63.9605C263.814 64.1712 263.854 64.3665 263.935 64.5465C264.015 64.724 264.127 64.8803 264.269 65.0152C264.411 65.1501 264.574 65.2567 264.759 65.3348C264.941 65.4106 265.134 65.4484 265.338 65.4484C265.61 65.4484 265.862 65.3857 266.094 65.2602C266.326 65.1324 266.513 64.9584 266.655 64.7382C266.795 64.5157 266.865 64.2647 266.865 63.9854ZM267.788 57.7061C267.788 58.2151 267.7 58.6649 267.525 59.0555C267.35 59.4438 267.108 59.748 266.801 59.9682C266.493 60.1883 266.143 60.2972 265.75 60.2949C265.442 60.2972 265.159 60.2345 264.901 60.1066C264.64 59.9764 264.424 59.8001 264.251 59.5775C264.076 59.355 263.965 59.1064 263.917 58.8318H263.875C263.787 59.194 263.593 59.484 263.292 59.7018C262.992 59.9196 262.646 60.0273 262.255 60.025C261.884 60.0273 261.552 59.9291 261.261 59.7302C260.967 59.529 260.737 59.2532 260.568 58.9028C260.4 58.5524 260.316 58.1535 260.316 57.7061C260.316 57.2634 260.402 56.868 260.572 56.52C260.74 56.1696 260.971 55.8938 261.264 55.6926C261.556 55.4914 261.886 55.3896 262.255 55.3872C262.646 55.3896 262.992 55.5008 263.292 55.721C263.593 55.9412 263.787 56.2276 263.875 56.5804H263.917C263.965 56.3081 264.076 56.0631 264.251 55.8453C264.424 55.6251 264.64 55.4499 264.901 55.3197C265.159 55.1871 265.442 55.1197 265.75 55.1173C266.143 55.1197 266.493 55.2309 266.801 55.4511C267.108 55.6713 267.35 55.9767 267.525 56.3673C267.7 56.7556 267.788 57.2018 267.788 57.7061ZM266.889 57.7061C266.889 57.4054 266.84 57.145 266.74 56.9248C266.639 56.7047 266.498 56.5342 266.318 56.4135C266.135 56.2927 265.922 56.2312 265.679 56.2288C265.425 56.2312 265.201 56.2975 265.007 56.4277C264.813 56.5555 264.661 56.7295 264.549 56.9497C264.438 57.1699 264.382 57.422 264.382 57.7061C264.382 57.9925 264.438 58.247 264.549 58.4696C264.661 58.6921 264.813 58.8673 265.007 58.9951C265.201 59.123 265.425 59.1857 265.679 59.1833C265.922 59.1857 266.135 59.1277 266.318 59.0093C266.498 58.8886 266.639 58.717 266.74 58.4944C266.84 58.2719 266.889 58.0091 266.889 57.7061ZM263.505 57.7061C263.505 57.4646 263.457 57.2503 263.36 57.0633C263.263 56.8763 263.128 56.7295 262.955 56.623C262.782 56.5141 262.58 56.4584 262.348 56.4561C262.12 56.4584 261.921 56.5129 261.751 56.6194C261.581 56.7236 261.449 56.8692 261.357 57.0562C261.262 57.2432 261.215 57.4599 261.215 57.7061C261.215 57.957 261.262 58.1772 261.357 58.3666C261.449 58.5536 261.581 58.6992 261.751 58.8034C261.921 58.9075 262.12 58.9584 262.348 58.9561C262.58 58.9584 262.782 58.9064 262.955 58.7998C263.128 58.6933 263.263 58.5465 263.36 58.3595C263.457 58.1701 263.505 57.9523 263.505 57.7061ZM267.688 53.6001L261.41 50.4254H261.357V54.0972H260.416V49.289H261.389L267.688 52.4531V53.6001ZM260.316 45.7334C260.319 45.4091 260.378 45.0895 260.494 44.7746C260.61 44.4597 260.799 44.1757 261.062 43.9223C261.325 43.6667 261.68 43.4631 262.127 43.3115C262.572 43.1577 263.126 43.0795 263.789 43.0772C264.426 43.0772 264.993 43.1411 265.49 43.2689C265.985 43.3968 266.403 43.5802 266.744 43.8194C267.085 44.0561 267.344 44.3437 267.522 44.6823C267.699 45.0208 267.788 45.402 267.788 45.8258C267.788 46.259 267.703 46.6437 267.532 46.9799C267.362 47.316 267.126 47.5895 266.826 47.8002C266.523 48.0109 266.175 48.1423 265.782 48.1944V47.1113C266.094 47.0402 266.347 46.8958 266.541 46.678C266.733 46.4579 266.829 46.1738 266.829 45.8258C266.829 45.2931 266.597 44.8776 266.133 44.5793C265.667 44.281 265.016 44.1307 264.18 44.1283V44.1851C264.384 44.3082 264.559 44.4621 264.706 44.6468C264.852 44.8291 264.966 45.0338 265.046 45.2611C265.127 45.4884 265.167 45.7311 265.167 45.9891C265.167 46.4081 265.064 46.7893 264.858 47.1326C264.652 47.4758 264.369 47.7493 264.009 47.9529C263.65 48.1565 263.239 48.2583 262.777 48.2583C262.318 48.2583 261.901 48.1541 261.527 47.9458C261.153 47.7351 260.857 47.4415 260.639 47.0651C260.419 46.6863 260.312 46.2424 260.316 45.7334ZM261.24 45.7299C261.24 46.0069 261.308 46.2566 261.446 46.4792C261.581 46.6993 261.764 46.8733 261.996 47.0012C262.226 47.129 262.481 47.1929 262.763 47.1929C263.045 47.1929 263.3 47.1314 263.53 47.0083C263.757 46.8828 263.938 46.7124 264.073 46.4969C264.206 46.2791 264.272 46.0305 264.272 45.7512C264.272 45.5428 264.232 45.3487 264.152 45.1688C264.071 44.9889 263.96 44.8314 263.818 44.6965C263.673 44.5615 263.51 44.4562 263.328 44.3804C263.145 44.3047 262.954 44.2668 262.752 44.2668C262.485 44.2668 262.236 44.3307 262.007 44.4586C261.777 44.584 261.592 44.7569 261.453 44.977C261.311 45.1972 261.24 45.4481 261.24 45.7299ZM267.788 39.2624C267.788 39.7501 267.704 40.1857 267.536 40.5692C267.368 40.9503 267.134 41.2522 266.836 41.4747C266.536 41.6949 266.188 41.8133 265.792 41.8298V40.7148C266.008 40.7006 266.195 40.6284 266.353 40.4982C266.509 40.3656 266.63 40.1928 266.715 39.9797C266.801 39.7666 266.843 39.5299 266.843 39.2695C266.843 38.983 266.794 38.7297 266.694 38.5095C266.595 38.287 266.456 38.113 266.279 37.9875C266.099 37.862 265.892 37.7993 265.657 37.7993C265.413 37.7993 265.199 37.862 265.014 37.9875C264.827 38.1106 264.681 38.2917 264.574 38.5308C264.468 38.7676 264.414 39.054 264.414 39.3902V40.0045H263.519V39.3902C263.519 39.1203 263.471 38.8836 263.374 38.68C263.277 38.474 263.142 38.313 262.969 38.197C262.794 38.081 262.589 38.023 262.355 38.023C262.13 38.023 261.934 38.0739 261.769 38.1757C261.601 38.2751 261.469 38.4172 261.375 38.6019C261.28 38.7841 261.233 38.9996 261.233 39.2482C261.233 39.4849 261.276 39.7063 261.364 39.9122C261.449 40.1158 261.572 40.2815 261.733 40.4094C261.892 40.5372 262.082 40.6059 262.305 40.6153V41.6771C261.912 41.6653 261.566 41.5493 261.268 41.3291C260.97 41.1066 260.737 40.813 260.568 40.4484C260.4 40.0839 260.316 39.679 260.316 39.234C260.316 38.7676 260.407 38.3651 260.59 38.0266C260.77 37.6857 261.01 37.4229 261.311 37.2382C261.611 37.0512 261.94 36.9589 262.298 36.9612C262.705 36.9589 263.051 37.0725 263.335 37.3021C263.619 37.5294 263.809 37.8324 263.907 38.2112H263.963C264.037 37.7283 264.228 37.3542 264.539 37.0891C264.849 36.8215 265.233 36.689 265.693 36.6913C266.093 36.689 266.451 36.8002 266.769 37.0251C267.086 37.2477 267.336 37.5519 267.518 37.9378C267.698 38.3237 267.788 38.7652 267.788 39.2624ZM267.688 35.349H266.893L264.343 32.8881C264.066 32.6253 263.824 32.4087 263.615 32.2382C263.405 32.0654 263.205 31.9364 263.015 31.8511C262.826 31.7659 262.625 31.7233 262.411 31.7233C262.17 31.7233 261.962 31.7801 261.786 31.8938C261.609 32.0074 261.473 32.1625 261.378 32.359C261.281 32.5554 261.233 32.7768 261.233 33.023C261.233 33.2834 261.286 33.5107 261.392 33.7048C261.499 33.899 261.649 34.0481 261.843 34.1523C262.037 34.2564 262.265 34.3085 262.525 34.3085V35.3561C262.082 35.3561 261.695 35.2543 261.364 35.0507C261.032 34.8471 260.776 34.5678 260.593 34.2126C260.409 33.8575 260.316 33.4539 260.316 33.0017C260.316 32.5448 260.407 32.1423 260.59 31.7943C260.77 31.4439 261.016 31.1705 261.328 30.974C261.639 30.7775 261.989 30.6793 262.38 30.6793C262.649 30.6793 262.913 30.7302 263.171 30.832C263.429 30.9314 263.717 31.1054 264.034 31.354C264.349 31.6026 264.732 31.9482 265.181 32.3909L266.694 33.8362H266.747V30.5621H267.688V35.349Z" fill="white"/>
</g>
<defs>
<filter id="filter0_f_6_11615" x="56.4411" y="-137.961" width="287.711" height="287.711" filterUnits="userSpaceOnUse" color-interpolation-filters="sRGB">
<feFlood flood-opacity="0" result="BackgroundImageFix"/>
<feBlend mode="normal" in="SourceGraphic" in2="BackgroundImageFix" result="shape"/>
<feGaussianBlur stdDeviation="32.2157" result="effect1_foregroundBlur_6_11615"/>
</filter>
<linearGradient id="paint0_linear_6_11615" x1="25.7122" y1="59.2392" x2="195.712" y2="59.2392" gradientUnits="userSpaceOnUse">
<stop stop-color="#409BAF"/>
<stop offset="0.5" stop-color="#C471ED"/>
<stop offset="1" stop-color="#F64F59"/>
</linearGradient>
<clipPath id="clip0_6_11615">
<rect y="0.0403748" width="280" height="118.398" rx="12" fill="white"/>
</clipPath>
<clipPath id="clip1_6_11615">
<rect x="25.7122" y="10.9753" width="170" height="96.5277" rx="11.895" fill="white"/>
</clipPath>
</defs>
</svg>
