<svg width="280" height="230" viewBox="0 0 280 230" fill="none" xmlns="http://www.w3.org/2000/svg">
<g clip-path="url(#clip0_6_9484)">
<path d="M37.5263 53.1562C30.0358 53.1593 26.8182 64.005 19.488 65.5463C16.2141 66.2346 12.8738 64.8643 9.52885 64.805C6.18391 64.7457 2.1829 67.1745 2.88971 70.4444L66.6595 69.4831C60.0681 68.7986 53.9027 65.9024 49.1676 61.2662C45.7114 57.8289 42.4006 53.1542 37.5263 53.1562Z" fill="#F0F0F0"/>
<path d="M183.792 166.948C174.473 166.947 165.457 163.642 158.347 157.62C151.236 151.597 146.492 143.249 144.957 134.058L144.944 133.982L144.993 133.923C147.512 130.907 149.548 127.518 151.029 123.878C149.267 126.137 147.138 128.084 144.732 129.638L144.485 129.802L144.471 129.506C144.439 128.854 144.423 128.206 144.423 127.58C144.401 120.886 146.097 114.297 149.347 108.445C152.598 102.593 157.295 97.672 162.989 94.1527C153.024 83.8111 147.468 70.0005 147.497 55.6386C147.497 24.9594 172.461 9.79827e-06 203.147 9.79827e-06C214.846 -0.0165328 226.252 3.66044 235.739 10.5068C245.226 17.3532 252.31 27.0196 255.981 38.1283L256.031 38.2779L255.884 38.337C252.096 39.8709 248.609 40.608 245.274 40.572C249.075 41.6483 253.02 42.1254 256.968 41.986L257.104 41.9814L257.137 42.1132C258.24 46.5371 258.797 51.0793 258.796 55.6386C258.796 55.8031 258.796 55.9675 258.794 56.1318C258.783 59.6769 259.52 63.1844 260.956 66.4258C262.391 69.6672 264.494 72.5696 267.127 74.9439C271.332 78.7702 274.659 83.4622 276.878 88.6971C279.097 93.932 280.156 99.5855 279.981 105.269C279.807 110.952 278.403 116.53 275.867 121.618C273.331 126.707 269.722 131.186 265.29 134.747L265.209 134.812L265.115 134.769C259.295 132.128 255.241 129.181 252.48 125.561C254.347 130.119 257.069 134.277 260.498 137.811L260.648 137.965L260.463 138.073C254.579 141.5 247.908 143.344 241.1 143.425C234.291 143.506 227.578 141.821 221.615 138.535C219.22 146.718 214.242 153.907 207.425 159.028C200.608 164.148 192.318 166.927 183.792 166.948Z" fill="#D6215E" fill-opacity="0.5"/>
<path d="M169.766 229.657C169.594 229.656 169.428 229.594 169.298 229.481C169.168 229.368 169.083 229.213 169.059 229.042C169.028 228.829 166.052 207.361 168.725 178.83C171.194 152.481 179.122 114.529 202.873 83.3594C202.929 83.2846 203.001 83.2217 203.082 83.1744C203.163 83.1271 203.253 83.0962 203.346 83.0836C203.439 83.071 203.534 83.0769 203.625 83.1009C203.715 83.1249 203.801 83.1665 203.875 83.2235C203.95 83.2805 204.013 83.3516 204.06 83.4329C204.107 83.5141 204.138 83.6039 204.151 83.697C204.163 83.7902 204.157 83.8849 204.133 83.9757C204.109 84.0666 204.068 84.1518 204.01 84.2265C180.465 115.127 172.601 152.8 170.15 178.964C167.492 207.329 170.445 228.629 170.475 228.841C170.49 228.942 170.482 229.045 170.453 229.144C170.424 229.242 170.374 229.333 170.307 229.41C170.24 229.488 170.156 229.55 170.063 229.592C169.97 229.635 169.869 229.657 169.766 229.657Z" fill="black"/>
<path d="M181.639 124.574C181.488 124.574 181.34 124.526 181.218 124.438C181.096 124.349 181.005 124.224 180.958 124.08C180.911 123.936 180.911 123.782 180.958 123.638C181.005 123.494 181.095 123.369 181.218 123.28C181.304 123.218 189.992 116.957 202.982 112.201C214.989 107.805 233.248 103.82 252.046 109.802C252.136 109.831 252.219 109.877 252.291 109.937C252.362 109.998 252.422 110.072 252.465 110.155C252.508 110.239 252.534 110.33 252.542 110.424C252.55 110.517 252.54 110.611 252.511 110.701C252.483 110.791 252.437 110.874 252.376 110.945C252.316 111.017 252.242 111.076 252.158 111.12C252.075 111.163 251.983 111.189 251.89 111.197C251.796 111.205 251.702 111.194 251.612 111.165C233.2 105.306 215.271 109.225 203.473 113.545C190.67 118.233 182.143 124.376 182.059 124.437C181.937 124.526 181.79 124.574 181.639 124.574Z" fill="black"/>
<path d="M37.3549 210.164L39.7717 210.92L55.99 159.095C55.3268 158.926 54.6241 159.018 54.0263 159.351C53.4285 159.684 52.981 160.234 52.7758 160.886L37.3549 210.164Z" fill="black"/>
<path d="M90.6574 142.561H79.9657V111.134H90.6574C92.7029 111.137 94.664 111.95 96.1104 113.397C97.5568 114.843 98.3703 116.804 98.3726 118.85V134.846C98.3703 136.891 97.5568 138.852 96.1104 140.299C94.664 141.745 92.7029 142.559 90.6574 142.561Z" fill="black"/>
<path d="M89.1692 125.725C88.8121 125.725 88.4697 125.583 88.2172 125.33C87.9647 125.078 87.8227 124.736 87.8223 124.378V112.706H90.516V124.378C90.5156 124.736 90.3736 125.078 90.1211 125.33C89.8686 125.583 89.5263 125.725 89.1692 125.725Z" fill="black"/>
<path d="M92.4073 140.092H84.5842C84.1334 140.091 83.7012 139.912 83.3824 139.593C83.0637 139.274 82.8844 138.842 82.8839 138.391V133.711C82.8844 133.26 83.0637 132.828 83.3824 132.509C83.7012 132.19 84.1334 132.011 84.5842 132.011H92.4073C92.8581 132.011 93.2903 132.19 93.6091 132.509C93.9278 132.828 94.1071 133.26 94.1076 133.711V138.391C94.1071 138.842 93.9278 139.274 93.6091 139.593C93.2903 139.912 92.8581 140.091 92.4073 140.092Z" fill="black"/>
<path d="M69.597 107.865C69.4132 107.865 69.235 107.801 69.0927 107.685C69.0045 107.613 68.9322 107.524 68.8802 107.422C68.8282 107.321 68.7977 107.211 68.7905 107.097C68.5382 103.07 69.2378 99.0397 70.8327 95.333C71.9134 92.8308 73.1566 91.2185 74.7452 90.2589C76.8645 88.9789 79.7725 88.8766 82.7235 89.9784C84.4099 90.608 85.6262 91.431 86.4417 92.4943C87.5299 93.9131 87.8711 95.7333 88.0779 97.4889C88.3898 100.145 88.4631 102.824 88.2968 105.493C88.2893 105.631 88.2453 105.765 88.1693 105.88C88.0933 105.995 87.988 106.088 87.8643 106.15C87.7304 106.215 87.5818 106.244 87.4331 106.235C87.2844 106.225 87.1409 106.176 87.0167 106.094C86.9668 106.061 86.9152 106.031 86.8621 106.003C86.5933 105.869 86.296 105.8 85.9953 105.804C85.6947 105.808 85.3993 105.884 85.1339 106.025C84.9392 106.141 84.7551 106.273 84.5835 106.42L83.5226 107.279C83.3916 107.383 83.232 107.445 83.0652 107.455C82.8983 107.466 82.7323 107.425 82.5892 107.338C81.8198 106.901 80.9599 106.647 80.0763 106.596C78.9032 106.553 77.7288 106.638 76.5743 106.85L69.7169 107.856C69.6772 107.862 69.6371 107.865 69.597 107.865Z" fill="black"/>
<path d="M68.6815 222.238H65.0194L63.2773 208.113H68.6821L68.6815 222.238Z" fill="#C99071"/>
<path d="M70.6516 229.191H68.0531L67.5892 226.738L66.4013 229.191H59.5093C59.1789 229.191 58.8572 229.086 58.5911 228.89C58.325 228.694 58.1284 228.419 58.0301 228.103C57.9318 227.788 57.9369 227.449 58.0446 227.137C58.1523 226.825 58.3571 226.555 58.6289 226.367L64.1327 222.566V220.086L69.9217 220.431L70.6516 229.191Z" fill="black"/>
<path d="M110.826 219.105L107.45 220.524L100.369 208.179L105.352 206.084L110.826 219.105Z" fill="#C99071"/>
<path d="M115.338 224.751L112.942 225.759L111.564 223.677L111.419 226.399L105.066 229.07C104.762 229.198 104.424 229.226 104.103 229.148C103.782 229.071 103.494 228.893 103.281 228.64C103.068 228.388 102.941 228.074 102.92 227.744C102.898 227.414 102.982 227.086 103.16 226.808L106.76 221.171L105.799 218.884L111.269 216.959L115.338 224.751Z" fill="black"/>
<path d="M66.9703 126.037L65.9209 140.096L58.9608 161.092L56.1656 159.468L59.9578 138.114L61.2456 125.796L66.9703 126.037Z" fill="#C99071"/>
<path d="M57.3374 164.155C58.9553 164.155 60.2667 162.843 60.2667 161.225C60.2667 159.608 58.9553 158.296 57.3374 158.296C55.7196 158.296 54.4081 159.608 54.4081 161.225C54.4081 162.843 55.7196 164.155 57.3374 164.155Z" fill="#C99071"/>
<path d="M84.8295 142.23V146.108C84.8295 146.108 90.8323 156.686 88.388 161.225L97.4002 185.878C97.4002 185.878 109.622 198.099 108.574 206.829L109.273 209.622L101.241 213.114L99.4953 210.67L85.8771 187.275L74.3539 165.974L72.2588 191.116C72.2588 191.116 73.6556 210.67 69.8145 212.765L69.4653 215.908H61.3144V212.921C61.3144 212.921 58.2914 202.29 60.0373 194.258L59.3389 160.387C59.3389 160.387 62.4816 146.071 66.3226 143.626L67.7194 140.134L84.8295 142.23Z" fill="black"/>
<path d="M91.2432 115.348L83.6318 111.784L81.4348 107.955L74.0471 108.374L71.8115 112.023L65.2358 113.356L66.2021 137.123C65.7717 137.868 65.6182 138.741 65.7689 139.589C65.9996 141.078 67.1713 139.907 65.9996 141.078C64.8279 142.25 63.9447 141.661 64.5328 142.688C65.1208 143.715 63.6745 145.315 63.6745 145.315C63.6745 145.315 82.3804 154.843 87.6648 142.688C87.6648 142.688 88.7066 139.133 86.9466 131.684C85.1865 124.235 91.2432 115.348 91.2432 115.348Z" fill="#E2E2E2"/>
<path d="M67.3969 114.869L65.2358 113.356C65.2358 113.356 62.2467 114.583 62.1459 117.065C62.0451 119.548 60.3269 126.978 60.3269 126.978L67.1506 130.646L67.3969 114.869Z" fill="#E2E2E2"/>
<path d="M93.0408 127.209L91.9917 141.268L80.3447 158.749L77.5497 157.124L86.0286 139.286L87.3165 126.968L93.0408 127.209Z" fill="#C99071"/>
<path d="M87.683 116.142L91.2433 115.348C91.2433 115.348 93.3886 116.033 93.6815 119.255C93.9744 122.477 94.2201 128.085 94.2201 128.085L86.7486 133.58L84.8936 125.7L87.683 116.142Z" fill="#E2E2E2"/>
<path d="M78.4284 161.811C80.0462 161.811 81.3577 160.5 81.3577 158.882C81.3577 157.264 80.0462 155.953 78.4284 155.953C76.8106 155.953 75.4991 157.264 75.4991 158.882C75.4991 160.5 76.8106 161.811 78.4284 161.811Z" fill="#C99071"/>
<path d="M77.0731 106.7C80.8426 106.7 83.8984 103.645 83.8984 99.8752C83.8984 96.1057 80.8426 93.0499 77.0731 93.0499C73.3035 93.0499 70.2478 96.1057 70.2478 99.8752C70.2478 103.645 73.3035 106.7 77.0731 106.7Z" fill="#C99071"/>
<path d="M71.5138 98.8462H71.5134C70.644 98.8458 69.7735 98.8447 68.9018 98.8428C68.7979 98.8423 68.6952 98.8211 68.5997 98.7803C68.5041 98.7396 68.4177 98.6801 68.3454 98.6055C68.2743 98.5325 68.2187 98.4458 68.182 98.3508C68.1453 98.2557 68.1283 98.1541 68.1319 98.0523C68.1962 96.6059 68.6095 95.1966 69.3365 93.9447C70.0636 92.6927 71.0827 91.6352 72.307 90.8625C73.5943 90.0774 75.0633 89.6397 76.5703 89.5921C78.0773 89.5444 79.571 89.8885 80.9053 90.5907C82.2396 91.2928 83.369 92.3291 84.1831 93.5982C84.9972 94.8673 85.4682 96.3259 85.5502 97.8314C85.5559 97.9331 85.5413 98.035 85.5073 98.131C85.4734 98.227 85.4206 98.3153 85.3522 98.3908C85.2837 98.4662 85.201 98.5273 85.1087 98.5705C85.0165 98.6137 84.9165 98.6381 84.8148 98.6423C81.7942 98.77 78.4435 98.8321 73.9505 98.8437H73.9483C73.7954 98.8441 73.6458 98.7988 73.5189 98.7136C73.3919 98.6283 73.2934 98.5071 73.236 98.3654L73.1637 98.1884C73.1256 98.0953 73.059 98.0166 72.9734 97.9637C72.8878 97.9108 72.7876 97.8864 72.6873 97.8941C72.5869 97.9017 72.4916 97.9409 72.415 98.0062C72.3383 98.0714 72.2844 98.1593 72.2608 98.2571C72.2209 98.4251 72.1254 98.5747 71.9898 98.6816C71.8542 98.7885 71.6865 98.8466 71.5138 98.8462Z" fill="black"/>
<path d="M86.7913 133.267C84.957 131.541 84.1685 129.036 84.1559 126.563C84.1415 123.738 85.164 121.055 86.4864 118.599C87.2861 117.114 88.1973 115.692 89.1091 114.274C89.4159 113.797 88.6555 113.356 88.3503 113.83C85.2653 118.629 81.868 124.312 83.8575 130.209C84.314 131.607 85.1083 132.871 86.1699 133.889C86.5816 134.276 87.2043 133.656 86.7913 133.267Z" fill="black"/>
<path d="M37.4017 185.707C35.8902 185.23 34.2749 185.189 32.7414 185.59C32.7378 185.592 32.7352 185.591 32.7317 185.593C31.5432 185.901 30.4353 186.463 29.4835 187.239C29.4282 187.283 29.3757 187.329 29.323 187.374C28.1169 188.409 27.2265 189.762 26.7537 191.279L20.2324 212.118C19.7473 213.66 19.7141 215.309 20.1369 216.87C20.1624 216.958 20.188 217.045 20.2137 217.133C20.5302 218.167 21.0397 219.132 21.7152 219.976C21.7194 219.98 21.7228 219.986 21.7252 219.991C22.7796 221.3 24.1995 222.266 25.8045 222.765L38.1036 226.614L49.7008 189.556L37.4017 185.707Z" fill="#FF7686"/>
<path d="M56.7956 159.347L40.9555 209.964C40.9057 210.123 40.8877 210.29 40.9024 210.455C40.9172 210.621 40.9644 210.782 41.0415 210.93C41.1186 211.077 41.2239 211.208 41.3516 211.315C41.4793 211.421 41.6267 211.502 41.7855 211.551C41.9442 211.601 42.1113 211.619 42.277 211.604C42.4427 211.589 42.6038 211.542 42.7512 211.465C42.8986 211.387 43.0293 211.282 43.1359 211.154C43.2425 211.026 43.3228 210.879 43.3724 210.72L58.4152 162.651C58.6187 161.998 58.5643 161.291 58.2631 160.677C57.9619 160.062 57.4367 159.586 56.7956 159.347Z" fill="black"/>
<path d="M37.0401 229.391C38.2926 229.391 39.3079 228.376 39.3079 227.123C39.3079 225.871 38.2926 224.855 37.0401 224.855C35.7877 224.855 34.7724 225.871 34.7724 227.123C34.7724 228.376 35.7877 229.391 37.0401 229.391Z" fill="black"/>
<path d="M22.2704 224.769C23.5228 224.769 24.5381 223.754 24.5381 222.501C24.5381 221.249 23.5228 220.233 22.2704 220.233C21.0179 220.233 20.0026 221.249 20.0026 222.501C20.0026 223.754 21.0179 224.769 22.2704 224.769Z" fill="black"/>
<path d="M32.7414 185.59C30.3926 192.954 24.2398 212.21 21.7251 219.991C21.7227 219.986 21.7193 219.98 21.7151 219.976C21.0397 219.132 20.5302 218.167 20.2137 217.133C20.1881 217.045 20.1625 216.958 20.1368 216.87C22.833 208.414 27.3487 194.154 29.323 187.374C29.3756 187.329 29.4281 187.283 29.4834 187.239C30.4353 186.463 31.5432 185.901 32.7317 185.593C32.7352 185.591 32.7378 185.592 32.7414 185.59Z" fill="black"/>
<path d="M218.053 229.539H0.40037C0.294386 229.539 0.192851 229.496 0.118018 229.421C0.043185 229.346 0.00115967 229.245 0.00115967 229.139C0.00115967 229.033 0.043185 228.931 0.118018 228.856C0.192851 228.781 0.294386 228.739 0.40037 228.738H218.053C218.159 228.739 218.261 228.781 218.336 228.856C218.41 228.931 218.452 229.033 218.452 229.139C218.452 229.245 218.41 229.346 218.336 229.421C218.261 229.496 218.159 229.539 218.053 229.539Z" fill="#C4C4C4"/>
<path d="M105.658 19.5712C102.201 16.1339 98.8907 11.4592 94.0163 11.4612C86.5259 11.4642 83.3082 22.31 75.978 23.8512C72.7042 24.5396 69.3638 23.1692 66.0189 23.1099C62.674 23.0507 58.6729 25.4794 59.3798 28.7494L123.15 27.788C116.558 27.1036 110.393 24.2074 105.658 19.5712Z" fill="#F0F0F0"/>
<path d="M247.683 5.22882C240.192 5.23188 236.975 16.0776 229.644 17.6189C226.371 18.3072 223.03 16.9369 219.685 16.8776C216.34 16.8183 212.339 19.2471 213.046 22.517L276.816 21.5557C270.225 20.8713 264.059 17.975 259.324 13.3388C255.868 9.90152 252.557 5.22681 247.683 5.22882Z" fill="#F0F0F0"/>
</g>
<defs>
<clipPath id="clip0_6_9484">
<rect width="280" height="229.657" fill="white"/>
</clipPath>
</defs>
</svg>
