<svg width="80" height="96" viewBox="0 0 80 96" fill="none" xmlns="http://www.w3.org/2000/svg">
<g clip-path="url(#clip0_7_909)">
<path d="M56.8925 79.8466L57.6838 95.0405C57.6838 95.0405 24.2107 63.1816 20.0406 53.8602C15.8704 44.5387 23.7201 21.4801 23.7201 21.4801L41.1366 31.0466L56.8925 79.8466Z" fill="#C99071"/>
<path d="M5.56785 15.1025L0.416455 15.5931C0.416455 15.5931 -2.2819 21.4804 6.05846 21.9708L5.56785 15.1025Z" fill="#C99071"/>
<path d="M5.56785 24.1783L0.416455 24.6692C0.416455 24.6692 -2.2819 30.5566 6.05846 31.0469L5.56785 24.1783Z" fill="#C99071"/>
<path d="M5.56785 33.9905L0.416455 34.4811C0.416455 34.4811 -2.2819 40.3684 6.05846 40.8588L5.56785 33.9905Z" fill="#C99071"/>
<path d="M7.03978 43.8025L1.88838 44.2931C1.88838 44.2931 -0.809972 50.1805 7.53038 50.6708L7.03978 43.8025Z" fill="#C99071"/>
<path d="M3.05981 17.4672H3.45074V6.75931C3.45074 5.11564 4.10368 3.53929 5.26593 2.37704C6.42818 1.2148 8.00453 0.561852 9.6482 0.561852H32.3341C33.9778 0.561852 35.5541 1.2148 36.7164 2.37704C37.8786 3.53929 38.5315 5.11564 38.5315 6.75931V65.5034C38.5315 66.3173 38.3712 67.1232 38.0598 67.8751C37.7483 68.627 37.2918 69.3102 36.7164 69.8857C36.1409 70.4612 35.4577 70.9177 34.7057 71.2291C33.9538 71.5406 33.1479 71.7009 32.3341 71.7009H9.6482C8.83433 71.7009 8.02844 71.5406 7.27653 71.2291C6.52462 70.9177 5.84142 70.4612 5.26593 69.8857C4.69045 69.3102 4.23395 68.627 3.9225 67.8751C3.61105 67.1232 3.45074 66.3173 3.45074 65.5034V25.0892H3.05981V17.4672Z" fill="#3F3D56"/>
<path d="M9.39797 2.17435H12.3592C12.2231 2.50819 12.1711 2.8704 12.2079 3.22907C12.2446 3.58773 12.3691 3.93185 12.5702 4.23111C12.7712 4.53037 13.0429 4.77558 13.361 4.94515C13.6792 5.11472 14.0342 5.20345 14.3948 5.20351H27.3915C27.7521 5.20347 28.1071 5.11475 28.4253 4.94518C28.7436 4.77561 29.0152 4.53039 29.2163 4.23112C29.4174 3.93185 29.5419 3.58771 29.5787 3.22902C29.6155 2.87033 29.5635 2.5081 29.4273 2.17423H32.1932C33.4206 2.17426 34.5978 2.66187 35.4657 3.52979C36.3337 4.39772 36.8213 5.57487 36.8213 6.8023V65.4602C36.8213 66.6877 36.3337 67.8648 35.4658 68.7328C34.5978 69.6007 33.4207 70.0884 32.1932 70.0884H9.39797C8.17049 70.0884 6.99329 69.6008 6.12534 68.7328C5.25739 67.8649 4.76978 66.6877 4.76978 65.4602V6.8023C4.76978 5.57483 5.25739 4.39763 6.12534 3.52968C6.99329 2.66172 8.17049 2.17411 9.39797 2.17411V2.17435Z" fill="white"/>
<path d="M24.7347 18.6073H16.8567C16.3349 18.6073 15.9119 19.0303 15.9119 19.5521V20.0195C15.9119 20.5413 16.3349 20.9643 16.8567 20.9643H24.7347C25.2565 20.9643 25.6795 20.5413 25.6795 20.0195V19.5521C25.6795 19.0303 25.2565 18.6073 24.7347 18.6073Z" fill="url(#paint0_linear_7_909)"/>
<path d="M25.1999 28.7353H16.3919C15.87 28.7353 15.447 29.1583 15.447 29.6801V30.1475C15.447 30.6693 15.87 31.0923 16.3919 31.0923H25.1999C25.7217 31.0923 26.1448 30.6693 26.1448 30.1475V29.6801C26.1448 29.1583 25.7217 28.7353 25.1999 28.7353Z" fill="#E5E5E5"/>
<path d="M31.7891 33.7987H9.80251C9.28069 33.7987 8.85767 34.2217 8.85767 34.7435V35.2109C8.85767 35.7327 9.28069 36.1557 9.80251 36.1557H31.7891C32.3109 36.1557 32.7339 35.7327 32.7339 35.2109V34.7435C32.7339 34.2217 32.3109 33.7987 31.7891 33.7987Z" fill="#E5E5E5"/>
<path d="M31.7891 38.8617H9.80251C9.28069 38.8617 8.85767 39.2847 8.85767 39.8066V40.2739C8.85767 40.7957 9.28069 41.2188 9.80251 41.2188H31.7891C32.3109 41.2188 32.7339 40.7957 32.7339 40.2739V39.8066C32.7339 39.2847 32.3109 38.8617 31.7891 38.8617Z" fill="#E5E5E5"/>
<path d="M79.9999 87.76L78.4831 86.0294L52.5433 56.4358L51.562 36.3209L41.2595 19.1496L38.3158 11.7905C38.3158 11.7905 31.4473 12.5264 37.0893 26.5086L39.4196 33.9904C37.319 38.5149 36.2308 43.4432 36.2308 48.4316V65.5761C36.2308 69.613 55.4685 91.6024 57.7078 94.9614L79.9999 87.76Z" fill="#C99071"/>
<path opacity="0.2" d="M39.1235 20.6048L41.1716 19.5982L41.1018 19.4564L39.2094 20.3866L36.3527 12.8963L36.2048 12.9527L39.1235 20.6048Z" fill="black"/>
<path opacity="0.2" d="M0.443864 15.5184L0.38916 15.6669L3.42333 16.7846L3.47804 16.6361L0.443864 15.5184Z" fill="black"/>
<path opacity="0.2" d="M0.444109 24.698L0.389404 24.8465L3.42358 25.9642L3.47828 25.8157L0.444109 24.698Z" fill="black"/>
<path opacity="0.2" d="M0.444109 34.5108L0.389404 34.6593L3.42358 35.777L3.47828 35.6285L0.444109 34.5108Z" fill="black"/>
<path opacity="0.2" d="M2.03357 44.3262L1.96509 44.4689L3.44234 45.1779L3.51082 45.0352L2.03357 44.3262Z" fill="black"/>
<path d="M20.7782 61.6061C24.5569 61.6061 27.6202 58.5428 27.6202 54.7641C27.6202 50.9854 24.5569 47.9222 20.7782 47.9222C16.9995 47.9222 13.9363 50.9854 13.9363 54.7641C13.9363 58.5428 16.9995 61.6061 20.7782 61.6061Z" fill="url(#paint1_linear_7_909)"/>
<path d="M20.0456 57.6601C19.9624 57.6602 19.8801 57.6438 19.8033 57.612C19.7265 57.5802 19.6567 57.5335 19.598 57.4746L17.4288 55.1875C17.3101 55.0688 17.2434 54.9078 17.2434 54.7399C17.2434 54.572 17.3101 54.4109 17.4288 54.2922C17.5476 54.1735 17.7086 54.1068 17.8765 54.1068C18.0444 54.1068 18.2055 54.1735 18.3242 54.2922L20.0456 56.1317L23.2273 51.887C23.3461 51.7682 23.5071 51.7015 23.675 51.7015C23.8429 51.7015 24.004 51.7682 24.1227 51.887C24.2414 52.0057 24.3081 52.1667 24.3081 52.3347C24.3081 52.5026 24.2414 52.6636 24.1227 52.7823L20.4932 57.4746C20.4345 57.5335 20.3647 57.5802 20.2879 57.612C20.2111 57.6438 20.1287 57.6602 20.0456 57.6601Z" fill="#F2F2F2"/>
</g>
<defs>
<linearGradient id="paint0_linear_7_909" x1="15.9119" y1="19.7858" x2="25.6795" y2="19.7858" gradientUnits="userSpaceOnUse">
<stop stop-color="#409BAF"/>
<stop offset="0.5" stop-color="#C471ED"/>
<stop offset="1" stop-color="#F64F59"/>
</linearGradient>
<linearGradient id="paint1_linear_7_909" x1="13.9363" y1="54.7641" x2="27.6202" y2="54.7641" gradientUnits="userSpaceOnUse">
<stop stop-color="#409BAF"/>
<stop offset="0.5" stop-color="#C471ED"/>
<stop offset="1" stop-color="#F64F59"/>
</linearGradient>
<clipPath id="clip0_7_909">
<rect width="80" height="94.4784" fill="white" transform="translate(0 0.561981)"/>
</clipPath>
</defs>
</svg>
